<?xml version="1.0" encoding="UTF-8"?>
<!DOCTYPE svg PUBLIC "-//W3C//DTD SVG 1.1//EN" "http://www.w3.org/Graphics/SVG/1.1/DTD/svg11.dtd">
<svg xmlns="http://www.w3.org/2000/svg" version="1.1" width="267px" height="267px" style="shape-rendering:geometricPrecision; text-rendering:geometricPrecision; image-rendering:optimizeQuality; fill-rule:evenodd; clip-rule:evenodd" xmlns:xlink="http://www.w3.org/1999/xlink">
<g><path style="opacity:0.518" fill="#266784" d="M 162.5,28.5 C 157.463,28.4126 152.463,28.746 147.5,29.5C 147.918,28.7784 148.584,28.2784 149.5,28C 154.02,27.1864 158.354,27.353 162.5,28.5 Z"/></g>
<g><path style="opacity:0.922" fill="#247590" d="M 99.5,28.5 C 97.4855,29.9238 95.1522,30.5905 92.5,30.5C 94.5145,29.0762 96.8478,28.4095 99.5,28.5 Z"/></g>
<g><path style="opacity:1" fill="#1aa6d4" d="M 116.5,30.5 C 114.026,31.2763 113.359,32.7763 114.5,35C 113.833,36 113.167,37 112.5,38C 113.823,38.8159 114.489,39.9826 114.5,41.5C 108.941,37.9907 102.941,37.4907 96.5,40C 88.4377,42.8647 80.7711,46.5314 73.5,51C 72.7476,51.6708 72.4142,52.5041 72.5,53.5C 69.9818,52.4891 69.9818,51.1557 72.5,49.5C 71.8946,47.5188 70.8946,47.1854 69.5,48.5C 68.452,47.6171 67.2853,46.9504 66,46.5C 63.5351,47.6513 61.0351,48.6513 58.5,49.5C 68.2845,40.6026 79.6178,34.2693 92.5,30.5C 95.1522,30.5905 97.4855,29.9238 99.5,28.5C 103.646,27.353 107.98,27.1864 112.5,28C 114.066,28.6082 115.4,29.4415 116.5,30.5 Z"/></g>
<g><path style="opacity:1" fill="#17aadb" d="M 162.5,28.5 C 164.905,29.7682 167.572,30.4349 170.5,30.5C 172.579,30.9707 174.579,31.6373 176.5,32.5C 177.784,34.6138 179.784,35.6138 182.5,35.5C 185.331,36.0787 187.664,37.412 189.5,39.5C 188.417,39.5394 187.417,39.8728 186.5,40.5C 185.729,42.8622 184.895,45.1955 184,47.5C 182.871,45.8588 181.371,44.8588 179.5,44.5C 179.167,44.5 178.833,44.5 178.5,44.5C 171.533,41.2576 164.199,39.2576 156.5,38.5C 151.56,37.965 148.227,39.965 146.5,44.5C 146.167,44.5 145.833,44.5 145.5,44.5C 145.876,41.3733 145.876,38.3733 145.5,35.5C 144.174,36.9902 142.674,38.3235 141,39.5C 139.187,38.3909 138.354,39.0576 138.5,41.5C 137.833,42.1667 137.167,42.8333 136.5,43.5C 137.3,36.561 140.967,31.8943 147.5,29.5C 152.463,28.746 157.463,28.4126 162.5,28.5 Z"/></g>
<g><path style="opacity:0.49" fill="#205e77" d="M 162.5,28.5 C 165.495,28.2938 168.162,28.9605 170.5,30.5C 167.572,30.4349 164.905,29.7682 162.5,28.5 Z"/></g>
<g><path style="opacity:1" fill="#286f8a" d="M 176.5,32.5 C 178.75,33.1302 180.75,34.1302 182.5,35.5C 179.784,35.6138 177.784,34.6138 176.5,32.5 Z"/></g>
<g><path style="opacity:1" fill="#1c92bb" d="M 116.5,30.5 C 122.422,33.2668 125.922,37.9335 127,44.5C 127.5,61.1633 127.667,77.83 127.5,94.5C 126.784,76.9859 125.95,59.3193 125,41.5C 124.828,45.8711 124.328,50.2044 123.5,54.5C 122.094,55.6682 120.928,55.3348 120,53.5C 119.231,50.9009 119.398,48.4009 120.5,46C 119.667,45.1667 118.833,44.3333 118,43.5C 117.5,60.8301 117.333,78.1635 117.5,95.5C 116.668,78.6716 116.168,61.6716 116,44.5C 115.487,43.4734 114.987,42.4734 114.5,41.5C 114.489,39.9826 113.823,38.8159 112.5,38C 113.167,37 113.833,36 114.5,35C 113.359,32.7763 114.026,31.2763 116.5,30.5 Z"/></g>
<g><path style="opacity:1" fill="#0ab1e7" d="M 145.5,44.5 C 144.612,47.0545 144.279,49.7212 144.5,52.5C 143.834,56.0208 143.167,59.6875 142.5,63.5C 140.271,65.0993 139.938,67.0993 141.5,69.5C 139.688,72.6269 139.688,75.9602 141.5,79.5C 141.154,80.6956 140.654,80.6956 140,79.5C 139.333,81.5 138.667,83.5 138,85.5C 137.339,70.8206 137.505,56.154 138.5,41.5C 138.354,39.0576 139.187,38.3909 141,39.5C 142.674,38.3235 144.174,36.9902 145.5,35.5C 145.876,38.3733 145.876,41.3733 145.5,44.5 Z"/></g>
<g><path style="opacity:1" fill="#1ba6d4" d="M 190.5,39.5 C 199.631,44.3995 207.631,50.7328 214.5,58.5C 212.339,58.5637 210.506,57.897 209,56.5C 205.753,57.6441 205.919,58.6441 209.5,59.5C 208.5,60.3333 207.5,61.1667 206.5,62C 207.833,63.3333 209.167,64.6667 210.5,66C 209.829,66.9862 209.829,68.1529 210.5,69.5C 204.924,63.3797 198.924,57.713 192.5,52.5C 193.833,52.5 195.167,52.5 196.5,52.5C 194.1,48.4083 192.1,44.075 190.5,39.5 Z"/></g>
<g><path style="opacity:1" fill="#0eb1e6" d="M 72.5,53.5 C 73.7702,57.6381 75.4368,61.6381 77.5,65.5C 76.1667,66.8333 76.1667,68.1667 77.5,69.5C 77.0431,70.2975 76.3764,70.6309 75.5,70.5C 75.1296,66.4546 73.1296,63.4546 69.5,61.5C 68.3112,60.5713 66.9778,60.238 65.5,60.5C 65.5858,59.5041 65.2524,58.6708 64.5,58C 62.7818,57.654 61.1151,57.154 59.5,56.5C 58.8333,57.1667 58.1667,57.8333 57.5,58.5C 55.3315,55.6427 55.3315,52.976 57.5,50.5C 57.5,49.8333 57.8333,49.5 58.5,49.5C 61.0351,48.6513 63.5351,47.6513 66,46.5C 67.2853,46.9504 68.452,47.6171 69.5,48.5C 70.8946,47.1854 71.8946,47.5188 72.5,49.5C 69.9818,51.1557 69.9818,52.4891 72.5,53.5 Z"/></g>
<g><path style="opacity:1" fill="#0cb0e5" d="M 189.5,39.5 C 189.833,39.5 190.167,39.5 190.5,39.5C 192.1,44.075 194.1,48.4083 196.5,52.5C 195.167,52.5 193.833,52.5 192.5,52.5C 191.508,52.6716 190.842,52.3382 190.5,51.5C 190.5,50.8333 190.167,50.5 189.5,50.5C 189.44,49.9569 189.107,49.6236 188.5,49.5C 187.669,56.4764 187.169,63.4764 187,70.5C 184.788,66.6643 182.454,66.6643 180,70.5C 179.5,61.8397 179.334,53.1731 179.5,44.5C 181.371,44.8588 182.871,45.8588 184,47.5C 184.895,45.1955 185.729,42.8622 186.5,40.5C 187.417,39.8728 188.417,39.5394 189.5,39.5 Z"/></g>
<g><path style="opacity:0.078" fill="#255b6f" d="M 189.5,50.5 C 190.167,50.5 190.5,50.8333 190.5,51.5C 189.833,57.1667 189.167,62.8333 188.5,68.5C 188.177,62.31 188.51,56.31 189.5,50.5 Z"/></g>
<g><path style="opacity:1" fill="#2299c0" d="M 65.5,60.5 C 66.9778,60.238 68.3112,60.5713 69.5,61.5C 73.1296,63.4546 75.1296,66.4546 75.5,70.5C 71.8333,67.5 68.5,64.1667 65.5,60.5 Z"/></g>
<g><path style="opacity:0.831" fill="#275c76" d="M 220.5,65.5 C 221.906,65.9731 222.573,66.9731 222.5,68.5C 221.094,68.0269 220.427,67.0269 220.5,65.5 Z"/></g>
<g><path style="opacity:1" fill="#17a6d6" d="M 57.5,50.5 C 55.3315,52.976 55.3315,55.6427 57.5,58.5C 58.1667,57.8333 58.8333,57.1667 59.5,56.5C 61.1151,57.154 62.7818,57.654 64.5,58C 65.2524,58.6708 65.5858,59.5041 65.5,60.5C 64.5416,60.0472 63.7083,59.3805 63,58.5C 53.7865,67.1966 45.9532,76.8633 39.5,87.5C 39.8808,85.0582 39.2141,84.3915 37.5,85.5C 36.3279,85.0814 35.3279,84.4147 34.5,83.5C 37.4291,82.3514 37.9291,80.6847 36,78.5C 34.7292,79.8825 33.2292,80.8825 31.5,81.5C 32.1103,79.5659 33.1103,77.8993 34.5,76.5C 35.9063,76.0269 36.573,75.0269 36.5,73.5C 41.7404,64.2582 48.7404,56.5915 57.5,50.5 Z"/></g>
<g><path style="opacity:1" fill="#1aa4d3" d="M 72.5,53.5 C 84.2479,64.2458 95.2479,75.5791 105.5,87.5C 104.027,86.9285 102.36,86.9285 100.5,87.5C 100.5,86.5 100.5,85.5 100.5,84.5C 97.5794,84.8541 95.2461,83.8541 93.5,81.5C 90.81,83.3482 90.9767,85.0149 94,86.5C 96.9501,84.7095 99.1168,85.5428 100.5,89C 98.9154,89.0848 97.5821,89.2514 96.5,89.5C 103.052,94.5008 105.385,101.167 103.5,109.5C 102.677,106.023 102.177,102.356 102,98.5C 93.3279,88.9951 84.4945,79.6617 75.5,70.5C 76.3764,70.6309 77.0431,70.2975 77.5,69.5C 76.1667,68.1667 76.1667,66.8333 77.5,65.5C 75.4368,61.6381 73.7702,57.6381 72.5,53.5 Z"/></g>
<g><path style="opacity:0.541" fill="#1b5973" d="M 36.5,73.5 C 36.573,75.0269 35.9063,76.0269 34.5,76.5C 34.427,74.9731 35.0937,73.9731 36.5,73.5 Z"/></g>
<g><path style="opacity:0.941" fill="#1c799b" d="M 145.5,44.5 C 145.833,44.5 146.167,44.5 146.5,44.5C 146.667,61.17 146.5,77.8367 146,94.5C 145.246,97.6844 143.746,100.351 141.5,102.5C 141.461,101.417 141.127,100.417 140.5,99.5C 141.325,98.6143 142.325,98.281 143.5,98.5C 143.5,97.5 143.5,96.5 143.5,95.5C 144.496,81.3431 144.829,67.0097 144.5,52.5C 144.279,49.7212 144.612,47.0545 145.5,44.5 Z"/></g>
<g><path style="opacity:0.824" fill="#1e4d6c" d="M 216.5,77.5 C 218.552,78.0527 218.885,79.0527 217.5,80.5C 217.443,79.391 217.11,78.391 216.5,77.5 Z"/></g>
<g><path style="opacity:1" fill="#18a5d4" d="M 138.5,41.5 C 137.505,56.154 137.339,70.8206 138,85.5C 138.667,83.5 139.333,81.5 140,79.5C 140.654,80.6956 141.154,80.6956 141.5,79.5C 139.688,75.9602 139.688,72.6269 141.5,69.5C 139.938,67.0993 140.271,65.0993 142.5,63.5C 143.167,59.6875 143.834,56.0208 144.5,52.5C 144.829,67.0097 144.496,81.3431 143.5,95.5C 143.665,92.1501 143.498,88.8168 143,85.5C 141.364,89.1099 139.364,92.4432 137,95.5C 135.893,96.7119 135.393,96.3786 135.5,94.5C 135.17,77.3251 135.503,60.3251 136.5,43.5C 137.167,42.8333 137.833,42.1667 138.5,41.5 Z"/></g>
<g><path style="opacity:1" fill="#18a2d2" d="M 178.5,44.5 C 178.833,44.5 179.167,44.5 179.5,44.5C 179.334,53.1731 179.5,61.8397 180,70.5C 182.454,66.6643 184.788,66.6643 187,70.5C 187.169,63.4764 187.669,56.4764 188.5,49.5C 189.107,49.6236 189.44,49.9569 189.5,50.5C 188.51,56.31 188.177,62.31 188.5,68.5C 188.672,73.1542 187.172,77.1542 184,80.5C 177.298,87.3693 170.465,94.036 163.5,100.5C 162.489,98.801 161.155,97.301 159.5,96C 160.608,94.3227 160.608,92.8227 159.5,91.5C 164.403,85.0906 169.903,79.0906 176,73.5C 176.667,72.1667 177.333,70.8333 178,69.5C 178.5,61.1733 178.666,52.84 178.5,44.5 Z"/></g>
<g><path style="opacity:1" fill="#12b2e6" d="M 127.5,94.5 C 127.631,95.2389 127.464,95.9056 127,96.5C 126,95.1667 125,95.1667 124,96.5C 125.282,99.752 124.115,101.752 120.5,102.5C 118.688,100.539 117.688,98.2061 117.5,95.5C 117.333,78.1635 117.5,60.8301 118,43.5C 118.833,44.3333 119.667,45.1667 120.5,46C 119.398,48.4009 119.231,50.9009 120,53.5C 120.928,55.3348 122.094,55.6682 123.5,54.5C 124.328,50.2044 124.828,45.8711 125,41.5C 125.95,59.3193 126.784,76.9859 127.5,94.5 Z"/></g>
<g><path style="opacity:1" fill="#15addd" d="M 227.5,75.5 C 234.605,85.3874 239.272,96.3874 241.5,108.5C 241.763,113.77 242.763,118.77 244.5,123.5C 244.5,124.833 244.5,126.167 244.5,127.5C 244.541,137.222 243.874,146.888 242.5,156.5C 242.768,158.099 242.434,159.432 241.5,160.5C 241.797,157.276 241.13,154.276 239.5,151.5C 241.36,148.616 241.694,145.616 240.5,142.5C 242.225,138.345 242.891,134.011 242.5,129.5C 242.797,126.276 242.13,123.276 240.5,120.5C 241.863,115.758 240.863,111.591 237.5,108C 238.598,105.502 238.432,103.002 237,100.5C 235.667,101.167 234.667,102.167 234,103.5C 232.887,102.24 232.72,101.073 233.5,100C 232.552,99.5172 231.552,99.3505 230.5,99.5C 229.388,97.5808 228.054,95.9142 226.5,94.5C 225.326,93.4863 224.66,92.153 224.5,90.5C 224.5,89.5 224.5,88.5 224.5,87.5C 222.182,87.3429 220.516,86.1762 219.5,84C 219.99,80.8555 221.157,78.0221 223,75.5C 224.398,76.536 225.898,76.536 227.5,75.5 Z"/></g>
<g><path style="opacity:1" fill="#16a9da" d="M 214.5,58.5 C 216.727,60.6068 218.727,62.9401 220.5,65.5C 220.427,67.0269 221.094,68.0269 222.5,68.5C 224.9,70.2964 226.567,72.6298 227.5,75.5C 225.898,76.536 224.398,76.536 223,75.5C 221.157,78.0221 219.99,80.8555 219.5,84C 220.516,86.1762 222.182,87.3429 224.5,87.5C 224.5,88.5 224.5,89.5 224.5,90.5C 223.778,90.0825 223.278,89.4158 223,88.5C 213.967,98.3647 204.8,108.031 195.5,117.5C 192.483,115.298 189.316,115.298 186,117.5C 185.667,115.066 186.834,114.066 189.5,114.5C 189.5,112.833 189.5,111.167 189.5,109.5C 191.167,107.167 193.167,105.167 195.5,103.5C 196.906,103.027 197.573,102.027 197.5,100.5C 203.833,93.5 210.5,86.8333 217.5,80.5C 218.885,79.0527 218.552,78.0527 216.5,77.5C 214.885,74.5505 212.885,71.8838 210.5,69.5C 209.829,68.1529 209.829,66.9862 210.5,66C 209.167,64.6667 207.833,63.3333 206.5,62C 207.5,61.1667 208.5,60.3333 209.5,59.5C 205.919,58.6441 205.753,57.6441 209,56.5C 210.506,57.897 212.339,58.5637 214.5,58.5 Z"/></g>
<g><path style="opacity:1" fill="#15a4d6" d="M 39.5,87.5 C 38.0698,91.3544 36.4031,95.0211 34.5,98.5C 34.1667,98.5 33.8333,98.5 33.5,98.5C 33.5654,98.0618 33.3988,97.7284 33,97.5C 31.8982,99.3809 30.5648,101.048 29,102.5C 27.328,101.495 25.9946,100.161 25,98.5C 24.6174,99.056 24.1174,99.3893 23.5,99.5C 25.1067,92.9596 27.7733,86.9596 31.5,81.5C 33.2292,80.8825 34.7292,79.8825 36,78.5C 37.9291,80.6847 37.4291,82.3514 34.5,83.5C 35.3279,84.4147 36.3279,85.0814 37.5,85.5C 39.2141,84.3915 39.8808,85.0582 39.5,87.5 Z"/></g>
<g><path style="opacity:1" fill="#16abdd" d="M 105.5,87.5 C 112.56,92.3012 115.226,98.9678 113.5,107.5C 113.005,109.482 112.505,111.482 112,113.5C 110.397,109.69 109.23,106.357 108.5,103.5C 105.599,105.453 104.932,107.953 106.5,111C 106.164,112.03 105.497,112.53 104.5,112.5C 103.596,111.791 103.263,110.791 103.5,109.5C 105.385,101.167 103.052,94.5008 96.5,89.5C 97.5821,89.2514 98.9154,89.0848 100.5,89C 99.1168,85.5428 96.9501,84.7095 94,86.5C 90.9767,85.0149 90.81,83.3482 93.5,81.5C 95.2461,83.8541 97.5794,84.8541 100.5,84.5C 100.5,85.5 100.5,86.5 100.5,87.5C 102.36,86.9285 104.027,86.9285 105.5,87.5 Z"/></g>
<g><path style="opacity:1" fill="#2486aa" d="M 226.5,94.5 C 228.054,95.9142 229.388,97.5808 230.5,99.5C 230.5,101.167 230.5,102.833 230.5,104.5C 228.654,101.46 227.321,98.1267 226.5,94.5 Z"/></g>
<g><path style="opacity:1" fill="#277da3" d="M 33.5,98.5 C 33.8333,98.5 34.1667,98.5 34.5,98.5C 37.3054,99.3195 40.3054,99.8195 43.5,100C 46.0254,100.424 48.0254,101.59 49.5,103.5C 47.4352,103.483 45.4352,103.15 43.5,102.5C 40.0033,101.336 36.67,100.002 33.5,98.5 Z"/></g>
<g><path style="opacity:0.765" fill="#20627b" d="M 197.5,100.5 C 197.573,102.027 196.906,103.027 195.5,103.5C 195.427,101.973 196.094,100.973 197.5,100.5 Z"/></g>
<g><path style="opacity:1" fill="#0fb0e5" d="M 33.5,98.5 C 36.67,100.002 40.0033,101.336 43.5,102.5C 42.3473,103.313 42.3473,104.313 43.5,105.5C 43.0623,106.506 42.3957,106.506 41.5,105.5C 40.6143,106.325 40.281,107.325 40.5,108.5C 37.1501,108.335 33.8168,108.502 30.5,109C 29.5769,111.041 29.2436,113.208 29.5,115.5C 27.8554,120.234 27.1888,125.234 27.5,130.5C 26.6745,134.982 26.1745,139.649 26,144.5C 25.5454,141.243 23.8787,138.909 21,137.5C 20.7266,130.133 20.2266,122.8 19.5,115.5C 19.8968,109.913 21.2301,104.58 23.5,99.5C 24.1174,99.3893 24.6174,99.056 25,98.5C 25.9946,100.161 27.328,101.495 29,102.5C 30.5648,101.048 31.8982,99.3809 33,97.5C 33.3988,97.7284 33.5654,98.0618 33.5,98.5 Z"/></g>
<g><path style="opacity:1" fill="#14aadd" d="M 143.5,95.5 C 143.5,96.5 143.5,97.5 143.5,98.5C 142.325,98.281 141.325,98.6143 140.5,99.5C 141.127,100.417 141.461,101.417 141.5,102.5C 142.105,104.026 143.271,105.026 145,105.5C 149.702,100.63 154.535,95.9634 159.5,91.5C 160.608,92.8227 160.608,94.3227 159.5,96C 161.155,97.301 162.489,98.801 163.5,100.5C 161.055,104.447 158.055,107.947 154.5,111C 155.823,111.816 156.489,112.983 156.5,114.5C 155.883,114.389 155.383,114.056 155,113.5C 153.34,116.336 150.84,117.836 147.5,118C 148.252,118.671 148.586,119.504 148.5,120.5C 145.271,117.391 141.605,115.058 137.5,113.5C 137.082,112.778 136.416,112.278 135.5,112C 132.518,111.502 129.518,111.335 126.5,111.5C 124.265,108.709 122.265,105.709 120.5,102.5C 124.115,101.752 125.282,99.752 124,96.5C 125,95.1667 126,95.1667 127,96.5C 127.464,95.9056 127.631,95.2389 127.5,94.5C 130.105,97.0544 132.771,97.0544 135.5,94.5C 135.393,96.3786 135.893,96.7119 137,95.5C 139.364,92.4432 141.364,89.1099 143,85.5C 143.498,88.8168 143.665,92.1501 143.5,95.5 Z"/></g>
<g><path style="opacity:1" fill="#15a5d7" d="M 113.5,107.5 C 114.833,108.167 115.833,109.167 116.5,110.5C 117.15,112.435 117.483,114.435 117.5,116.5C 116.116,118.703 114.449,120.703 112.5,122.5C 110.241,123.344 109.241,125.011 109.5,127.5C 108.296,132.177 108.296,136.844 109.5,141.5C 108.008,137.718 106.842,133.718 106,129.5C 104.473,131.221 103.473,133.221 103,135.5C 102.667,135.167 102.333,134.833 102,134.5C 101.667,136.167 101.333,137.833 101,139.5C 100.333,136.167 100.333,132.833 101,129.5C 103.22,126.979 105.72,124.812 108.5,123C 107.185,121.605 107.519,120.605 109.5,120C 107.582,118.288 105.582,117.788 103.5,118.5C 103.703,116.956 104.37,115.622 105.5,114.5C 105.137,113.817 104.804,113.15 104.5,112.5C 105.497,112.53 106.164,112.03 106.5,111C 104.932,107.953 105.599,105.453 108.5,103.5C 109.23,106.357 110.397,109.69 112,113.5C 112.505,111.482 113.005,109.482 113.5,107.5 Z"/></g>
<g><path style="opacity:1" fill="#11acde" d="M 230.5,99.5 C 231.552,99.3505 232.552,99.5172 233.5,100C 232.72,101.073 232.887,102.24 234,103.5C 234.667,102.167 235.667,101.167 237,100.5C 238.432,103.002 238.598,105.502 237.5,108C 240.863,111.591 241.863,115.758 240.5,120.5C 242.13,123.276 242.797,126.276 242.5,129.5C 241.461,131.531 239.795,132.864 237.5,133.5C 236.833,130.833 236.167,128.167 235.5,125.5C 234.833,123.5 234.167,121.5 233.5,119.5C 232.35,114.56 231.35,109.56 230.5,104.5C 230.5,102.833 230.5,101.167 230.5,99.5 Z"/></g>
<g><path style="opacity:0.949" fill="#1f7897" d="M 126.5,111.5 C 129.518,111.335 132.518,111.502 135.5,112C 136.416,112.278 137.082,112.778 137.5,113.5C 134.383,113.128 131.383,113.128 128.5,113.5C 127.478,113.145 126.811,112.478 126.5,111.5 Z"/></g>
<g><path style="opacity:1" fill="#1da9d8" d="M 43.5,102.5 C 45.4352,103.15 47.4352,103.483 49.5,103.5C 59.4466,111.778 68.7799,120.778 77.5,130.5C 75.0263,133.209 72.8597,132.875 71,129.5C 70.044,130.579 69.2106,131.745 68.5,133C 70.3969,137.172 69.3969,140.338 65.5,142.5C 66.4108,140.049 67.2441,137.715 68,135.5C 59.4348,126.265 50.2681,117.765 40.5,110C 37.5,109.333 34.5,109.333 31.5,110C 30.8906,111.948 30.224,113.782 29.5,115.5C 29.2436,113.208 29.5769,111.041 30.5,109C 33.8168,108.502 37.1501,108.335 40.5,108.5C 40.281,107.325 40.6143,106.325 41.5,105.5C 42.3957,106.506 43.0623,106.506 43.5,105.5C 42.3473,104.313 42.3473,103.313 43.5,102.5 Z"/></g>
<g><path style="opacity:0.325" fill="#205b6b" d="M 116.5,110.5 C 117.947,111.134 118.613,112.301 118.5,114C 118.472,115.07 118.139,115.903 117.5,116.5C 117.483,114.435 117.15,112.435 116.5,110.5 Z"/></g>
<g><path style="opacity:0.902" fill="#1f637d" d="M 241.5,108.5 C 243.237,113.23 244.237,118.23 244.5,123.5C 242.763,118.77 241.763,113.77 241.5,108.5 Z"/></g>
<g><path style="opacity:1" fill="#18a6d7" d="M 189.5,109.5 C 189.5,111.167 189.5,112.833 189.5,114.5C 186.834,114.066 185.667,115.066 186,117.5C 189.316,115.298 192.483,115.298 195.5,117.5C 189.5,124.167 183.167,130.5 176.5,136.5C 175.5,136.833 174.833,137.5 174.5,138.5C 172.455,136.016 169.788,135.016 166.5,135.5C 172.621,125.697 180.288,117.03 189.5,109.5 Z"/></g>
<g><path style="opacity:0.455" fill="#1d586c" d="M 103.5,118.5 C 103.573,120.027 102.906,121.027 101.5,121.5C 101.427,119.973 102.094,118.973 103.5,118.5 Z"/></g>
<g><path style="opacity:1" fill="#216f90" d="M 112.5,122.5 C 111.89,124.434 110.89,126.101 109.5,127.5C 109.241,125.011 110.241,123.344 112.5,122.5 Z"/></g>
<g><path style="opacity:1" fill="#19abdc" d="M 156.5,114.5 C 163.773,122.642 166.106,131.976 163.5,142.5C 163.167,142.5 162.833,142.5 162.5,142.5C 162.649,141.448 162.483,140.448 162,139.5C 159.443,140.646 158.11,139.646 158,136.5C 157.667,138.833 157.333,141.167 157,143.5C 155.187,144.609 154.354,143.942 154.5,141.5C 154.666,137.154 154.499,132.821 154,128.5C 153.617,127.944 153.117,127.611 152.5,127.5C 151.42,125.004 150.086,122.67 148.5,120.5C 148.586,119.504 148.252,118.671 147.5,118C 150.84,117.836 153.34,116.336 155,113.5C 155.383,114.056 155.883,114.389 156.5,114.5 Z"/></g>
<g><path style="opacity:0.596" fill="#255170" d="M 152.5,127.5 C 153.117,127.611 153.617,127.944 154,128.5C 154.499,132.821 154.666,137.154 154.5,141.5C 154.167,141.5 153.833,141.5 153.5,141.5C 153.717,136.77 153.383,132.103 152.5,127.5 Z"/></g>
<g><path style="opacity:1" fill="#12addf" d="M 242.5,129.5 C 242.891,134.011 242.225,138.345 240.5,142.5C 241.694,145.616 241.36,148.616 239.5,151.5C 241.13,154.276 241.797,157.276 241.5,160.5C 241.768,162.099 241.434,163.432 240.5,164.5C 239.778,164.918 239.278,165.584 239,166.5C 238.51,165.207 238.343,163.873 238.5,162.5C 237.127,162.657 235.793,162.49 234.5,162C 235.696,161.346 235.696,160.846 234.5,160.5C 233.201,161.09 232.368,162.09 232,163.5C 231.517,162.552 231.351,161.552 231.5,160.5C 231.788,157.061 232.454,153.728 233.5,150.5C 234.468,148.393 234.802,146.059 234.5,143.5C 235.376,143.631 236.043,143.298 236.5,142.5C 235.335,141.416 234.002,140.583 232.5,140C 235.142,138.532 236.809,136.365 237.5,133.5C 239.795,132.864 241.461,131.531 242.5,129.5 Z"/></g>
<g><path style="opacity:1" fill="#17addd" d="M 109.5,141.5 C 112.23,149.563 117.563,154.897 125.5,157.5C 122.073,158.098 118.74,158.265 115.5,158C 116.5,158.833 117.5,159.667 118.5,160.5C 119.098,161.977 119.098,163.643 118.5,165.5C 109.06,162.394 103.06,156.061 100.5,146.5C 98.983,138.078 99.3163,129.745 101.5,121.5C 102.906,121.027 103.573,120.027 103.5,118.5C 105.582,117.788 107.582,118.288 109.5,120C 107.519,120.605 107.185,121.605 108.5,123C 105.72,124.812 103.22,126.979 101,129.5C 100.333,132.833 100.333,136.167 101,139.5C 101.333,137.833 101.667,136.167 102,134.5C 102.333,134.833 102.667,135.167 103,135.5C 103.473,133.221 104.473,131.221 106,129.5C 106.842,133.718 108.008,137.718 109.5,141.5 Z"/></g>
<g><path style="opacity:0.698" fill="#287594" d="M 233.5,119.5 C 234.167,121.5 234.833,123.5 235.5,125.5C 235.5,128.833 235.5,132.167 235.5,135.5C 217.786,135.194 200.12,135.527 182.5,136.5C 182.611,135.883 182.944,135.383 183.5,135C 200.497,134.5 217.497,134.333 234.5,134.5C 234.084,129.507 233.751,124.507 233.5,119.5 Z"/></g>
<g><path style="opacity:0.004" fill="#0f394e" d="M 176.5,136.5 C 176.5,137.833 175.833,138.5 174.5,138.5C 174.833,137.5 175.5,136.833 176.5,136.5 Z"/></g>
<g><path style="opacity:0.753" fill="#237390" d="M 101.5,121.5 C 99.3163,129.745 98.983,138.078 100.5,146.5C 99.1331,143.534 98.1331,140.367 97.5,137C 97.9313,131.521 99.2646,126.354 101.5,121.5 Z"/></g>
<g><path style="opacity:0.949" fill="#216d8d" d="M 182.5,136.5 C 182.5,138.5 182.5,140.5 182.5,142.5C 179.833,140.5 179.833,138.5 182.5,136.5 Z"/></g>
<g><path style="opacity:1" fill="#0db6eb" d="M 235.5,125.5 C 236.167,128.167 236.833,130.833 237.5,133.5C 236.809,136.365 235.142,138.532 232.5,140C 234.002,140.583 235.335,141.416 236.5,142.5C 236.043,143.298 235.376,143.631 234.5,143.5C 217.12,143.806 199.786,143.472 182.5,142.5C 182.5,140.5 182.5,138.5 182.5,136.5C 200.12,135.527 217.786,135.194 235.5,135.5C 235.5,132.167 235.5,128.833 235.5,125.5 Z"/></g>
<g><path style="opacity:0.63" fill="#217a95" d="M 182.5,142.5 C 199.786,143.472 217.12,143.806 234.5,143.5C 234.802,146.059 234.468,148.393 233.5,150.5C 233.5,148.5 233.5,146.5 233.5,144.5C 216.83,144.667 200.163,144.5 183.5,144C 182.944,143.617 182.611,143.117 182.5,142.5 Z"/></g>
<g><path style="opacity:1" fill="#1792bd" d="M 75.5,143.5 C 74.4677,150.03 70.8011,154.196 64.5,156C 52.9926,156.169 41.6593,156.669 30.5,157.5C 29.9569,157.44 29.6236,157.107 29.5,156.5C 30.9492,155.828 32.2825,155.161 33.5,154.5C 44.1719,154.667 54.8385,154.5 65.5,154C 64.1667,153.333 63.1667,152.333 62.5,151C 64.7619,150.358 66.9285,149.525 69,148.5C 70.0704,145.758 71.5704,143.258 73.5,141C 71.2927,138.016 71.7927,137.85 75,140.5C 75.4828,141.448 75.6495,142.448 75.5,143.5 Z"/></g>
<g><path style="opacity:1" fill="#1d7592" d="M 162.5,142.5 C 162.833,142.5 163.167,142.5 163.5,142.5C 163.741,144.898 163.074,146.898 161.5,148.5C 161.325,146.379 161.659,144.379 162.5,142.5 Z"/></g>
<g><path style="opacity:0.416" fill="#217190" d="M 29.5,115.5 C 28.6677,125.476 28.3344,135.476 28.5,145.5C 40.1714,145.667 51.8381,145.5 63.5,145C 64.0659,144.005 64.7326,143.172 65.5,142.5C 66.513,145.428 65.1797,146.762 61.5,146.5C 50.1667,146.5 38.8333,146.5 27.5,146.5C 27.5,141.167 27.5,135.833 27.5,130.5C 27.1888,125.234 27.8554,120.234 29.5,115.5 Z"/></g>
<g><path style="opacity:0.706" fill="#1c5971" d="M 244.5,127.5 C 245.951,137.282 245.284,146.949 242.5,156.5C 243.874,146.888 244.541,137.222 244.5,127.5 Z"/></g>
<g><path style="opacity:1" fill="#11a9db" d="M 77.5,130.5 C 82.5111,130.334 87.5111,130.501 92.5,131C 96.7287,134.843 96.3954,138.177 91.5,141C 86.8333,141.333 82.1667,141.667 77.5,142C 76.9558,142.717 76.2891,143.217 75.5,143.5C 75.6495,142.448 75.4828,141.448 75,140.5C 71.7927,137.85 71.2927,138.016 73.5,141C 71.5704,143.258 70.0704,145.758 69,148.5C 66.9285,149.525 64.7619,150.358 62.5,151C 63.1667,152.333 64.1667,153.333 65.5,154C 54.8385,154.5 44.1719,154.667 33.5,154.5C 32.1266,154.657 30.7932,154.49 29.5,154C 32.2241,153.73 34.8908,153.23 37.5,152.5C 43.1076,153.265 48.6076,153.265 54,152.5C 55.4381,151.1 56.2714,149.433 56.5,147.5C 58.4147,147.784 60.0813,147.451 61.5,146.5C 65.1797,146.762 66.513,145.428 65.5,142.5C 69.3969,140.338 70.3969,137.172 68.5,133C 69.2106,131.745 70.044,130.579 71,129.5C 72.8597,132.875 75.0263,133.209 77.5,130.5 Z"/></g>
<g><path style="opacity:1" fill="#17a9d9" d="M 19.5,115.5 C 20.2266,122.8 20.7266,130.133 21,137.5C 23.8787,138.909 25.5454,141.243 26,144.5C 26.1745,139.649 26.6745,134.982 27.5,130.5C 27.5,135.833 27.5,141.167 27.5,146.5C 38.8333,146.5 50.1667,146.5 61.5,146.5C 60.0813,147.451 58.4147,147.784 56.5,147.5C 56.2714,149.433 55.4381,151.1 54,152.5C 48.6076,153.265 43.1076,153.265 37.5,152.5C 34.8908,153.23 32.2241,153.73 29.5,154C 30.7932,154.49 32.1266,154.657 33.5,154.5C 32.2825,155.161 30.9492,155.828 29.5,156.5C 29.6236,157.107 29.9569,157.44 30.5,157.5C 32.5569,166.534 37.5569,173.201 45.5,177.5C 44.5041,177.414 43.6708,177.748 43,178.5C 41.6004,175.654 40.1004,175.321 38.5,177.5C 37.2888,176.726 37.2888,175.893 38.5,175C 37.2068,174.51 35.8734,174.343 34.5,174.5C 35.2483,176.584 35.2483,178.584 34.5,180.5C 36.435,181.213 36.7683,182.213 35.5,183.5C 26.8263,177.514 21.6597,169.181 20,158.5C 16.9742,144.047 16.8076,129.713 19.5,115.5 Z"/></g>
<g><path style="opacity:1" fill="#14a7da" d="M 162.5,142.5 C 161.659,144.379 161.325,146.379 161.5,148.5C 157.77,157.229 151.437,163.229 142.5,166.5C 142.167,166.5 141.833,166.5 141.5,166.5C 139.643,165.246 137.643,165.246 135.5,166.5C 134.289,165.726 134.289,164.893 135.5,164C 134.167,163 132.833,162 131.5,161C 133.891,160.713 136.224,160.213 138.5,159.5C 139.478,159.977 140.311,160.643 141,161.5C 144.611,160.05 147.445,157.717 149.5,154.5C 149.192,153.692 148.692,153.025 148,152.5C 146.615,153.551 145.615,154.884 145,156.5C 144.329,155.748 143.496,155.414 142.5,155.5C 147.63,152.031 151.297,147.364 153.5,141.5C 153.833,141.5 154.167,141.5 154.5,141.5C 154.354,143.942 155.187,144.609 157,143.5C 157.333,141.167 157.667,138.833 158,136.5C 158.11,139.646 159.443,140.646 162,139.5C 162.483,140.448 162.649,141.448 162.5,142.5 Z"/></g>
<g><path style="opacity:1" fill="#15aedf" d="M 141.5,166.5 C 134.507,167.787 127.507,167.787 120.5,166.5C 119.508,166.672 118.842,166.338 118.5,165.5C 119.098,163.643 119.098,161.977 118.5,160.5C 117.5,159.667 116.5,158.833 115.5,158C 118.74,158.265 122.073,158.098 125.5,157.5C 131.323,157.877 136.989,157.21 142.5,155.5C 143.496,155.414 144.329,155.748 145,156.5C 145.615,154.884 146.615,153.551 148,152.5C 148.692,153.025 149.192,153.692 149.5,154.5C 147.445,157.717 144.611,160.05 141,161.5C 140.311,160.643 139.478,159.977 138.5,159.5C 136.224,160.213 133.891,160.713 131.5,161C 132.833,162 134.167,163 135.5,164C 134.289,164.893 134.289,165.726 135.5,166.5C 137.643,165.246 139.643,165.246 141.5,166.5 Z"/></g>
<g><path style="opacity:0.663" fill="#20708c" d="M 120.5,166.5 C 127.507,167.787 134.507,167.787 141.5,166.5C 141.833,166.5 142.167,166.5 142.5,166.5C 139.135,168.039 135.469,168.706 131.5,168.5C 127.531,168.706 123.865,168.039 120.5,166.5 Z"/></g>
<g><path style="opacity:1" fill="#18a8da" d="M 231.5,160.5 C 231.351,161.552 231.517,162.552 232,163.5C 232.368,162.09 233.201,161.09 234.5,160.5C 235.696,160.846 235.696,161.346 234.5,162C 235.793,162.49 237.127,162.657 238.5,162.5C 238.343,163.873 238.51,165.207 239,166.5C 239.278,165.584 239.778,164.918 240.5,164.5C 239.572,168.362 238.072,172.029 236,175.5C 233.167,178.333 230.333,181.167 227.5,184C 224.395,185.868 221.062,187.035 217.5,187.5C 208.161,187.334 198.827,187.5 189.5,188C 188.944,188.383 188.611,188.883 188.5,189.5C 183.9,190.959 180.234,193.625 177.5,197.5C 176.265,195.227 176.598,193.394 178.5,192C 175.751,190.72 174.584,188.887 175,186.5C 174.292,187.381 173.458,188.047 172.5,188.5C 175.627,183.912 179.961,180.746 185.5,179C 196.118,177.792 206.785,177.125 217.5,177C 224.508,173.492 229.175,167.992 231.5,160.5 Z"/></g>
<g><path style="opacity:1" fill="#297396" d="M 48.5,177.5 C 56.5069,177.334 64.5069,177.5 72.5,178C 74.0581,178.21 75.3915,178.71 76.5,179.5C 66.7734,180.139 57.4401,179.472 48.5,177.5 Z"/></g>
<g><path style="opacity:1" fill="#14b0e3" d="M 45.5,177.5 C 46.5,177.5 47.5,177.5 48.5,177.5C 57.4401,179.472 66.7734,180.139 76.5,179.5C 86.0954,182.096 92.4287,188.096 95.5,197.5C 95.5,197.833 95.5,198.167 95.5,198.5C 92.8911,200.537 90.0578,200.537 87,198.5C 86.5172,199.448 86.3505,200.448 86.5,201.5C 84.249,196.247 80.5823,192.247 75.5,189.5C 74.7375,188.732 73.7375,188.232 72.5,188C 62.1464,187.704 51.8131,187.204 41.5,186.5C 39.0326,186.245 37.0326,185.245 35.5,183.5C 36.7683,182.213 36.435,181.213 34.5,180.5C 35.2483,178.584 35.2483,176.584 34.5,174.5C 35.8734,174.343 37.2068,174.51 38.5,175C 37.2888,175.893 37.2888,176.726 38.5,177.5C 40.1004,175.321 41.6004,175.654 43,178.5C 43.6708,177.748 44.5041,177.414 45.5,177.5 Z"/></g>
<g><path style="opacity:1" fill="#12aee0" d="M 148.5,174.5 C 148.5,180.5 148.5,186.5 148.5,192.5C 155.841,192.666 163.174,192.5 170.5,192C 171.252,191.329 171.586,190.496 171.5,189.5C 171.5,188.833 171.833,188.5 172.5,188.5C 173.458,188.047 174.292,187.381 175,186.5C 174.584,188.887 175.751,190.72 178.5,192C 176.598,193.394 176.265,195.227 177.5,197.5C 177.737,198.791 177.404,199.791 176.5,200.5C 175.732,201.263 175.232,202.263 175,203.5C 174.5,212.16 174.334,220.827 174.5,229.5C 174.443,230.609 174.11,231.609 173.5,232.5C 172.527,233.791 171.527,233.791 170.5,232.5C 169.614,233.325 169.281,234.325 169.5,235.5C 167.058,235.119 166.391,235.786 167.5,237.5C 166.167,238.833 164.833,238.833 163.5,237.5C 163.014,235.696 162.681,234.029 162.5,232.5C 163.6,231.395 164.267,230.062 164.5,228.5C 164.5,228.167 164.5,227.833 164.5,227.5C 165.222,227.082 165.722,226.416 166,225.5C 166.5,217.173 166.666,208.84 166.5,200.5C 160.5,200.5 154.5,200.5 148.5,200.5C 148.173,210.015 148.506,219.348 149.5,228.5C 149.034,230.201 149.034,231.701 149.5,233C 148.498,234.672 147.332,235.838 146,236.5C 143.585,233.986 141.419,231.319 139.5,228.5C 138.338,210.338 138.171,192.005 139,173.5C 142.859,169.247 146.026,169.58 148.5,174.5 Z M 164.5,227.5 C 164.5,227.833 164.5,228.167 164.5,228.5C 162.833,229.5 161.5,230.833 160.5,232.5C 157.721,232.721 155.054,232.388 152.5,231.5C 151.272,230.694 150.272,229.694 149.5,228.5C 149.334,219.494 149.5,210.494 150,201.5C 155,202.833 160,202.833 165,201.5C 164.624,210.121 164.458,218.788 164.5,227.5 Z"/></g>
<g><path style="opacity:0.935" fill="#2982a0" d="M 121.5,171.5 C 122.79,172.058 123.623,173.058 124,174.5C 124.667,191.833 124.667,209.167 124,226.5C 123.802,228.382 123.302,230.048 122.5,231.5C 122.81,211.454 122.476,191.454 121.5,171.5 Z"/></g>
<g><path style="opacity:0.659" fill="#2c7c99" d="M 41.5,186.5 C 51.8131,187.204 62.1464,187.704 72.5,188C 73.7375,188.232 74.7375,188.732 75.5,189.5C 65.5253,188.77 55.5253,188.27 45.5,188C 43.9419,187.79 42.6085,187.29 41.5,186.5 Z"/></g>
<g><path style="opacity:0.613" fill="#2d7b97" d="M 217.5,187.5 C 207.963,188.215 198.296,188.882 188.5,189.5C 188.611,188.883 188.944,188.383 189.5,188C 198.827,187.5 208.161,187.334 217.5,187.5 Z"/></g>
<g><path style="opacity:1" fill="#11b6e8" d="M 121.5,171.5 C 122.476,191.454 122.81,211.454 122.5,231.5C 121.142,232.626 119.808,232.626 118.5,231.5C 118.833,230.5 119.5,229.833 120.5,229.5C 121.497,222.866 121.83,216.2 121.5,209.5C 119.856,209.286 118.356,209.62 117,210.5C 116.333,213.833 116.333,217.167 117,220.5C 118.156,219.007 118.99,219.174 119.5,221C 118.36,223.185 117.36,225.018 116.5,226.5C 117.552,226.351 118.552,226.517 119.5,227C 117.866,227.494 116.199,227.66 114.5,227.5C 114.5,209.5 114.5,191.5 114.5,173.5C 116.265,170.551 118.598,169.885 121.5,171.5 Z"/></g>
<g><path style="opacity:0.398" fill="#1a566d" d="M 148.5,174.5 C 149.489,179.975 149.822,185.642 149.5,191.5C 156.175,191.666 162.842,191.5 169.5,191C 170.044,190.283 170.711,189.783 171.5,189.5C 171.586,190.496 171.252,191.329 170.5,192C 163.174,192.5 155.841,192.666 148.5,192.5C 148.5,186.5 148.5,180.5 148.5,174.5 Z"/></g>
<g><path style="opacity:0.955" fill="#24708c" d="M 164.5,227.5 C 164.458,218.788 164.624,210.121 165,201.5C 160,202.833 155,202.833 150,201.5C 149.5,210.494 149.334,219.494 149.5,228.5C 148.506,219.348 148.173,210.015 148.5,200.5C 154.5,200.5 160.5,200.5 166.5,200.5C 166.666,208.84 166.5,217.173 166,225.5C 165.722,226.416 165.222,227.082 164.5,227.5 Z"/></g>
<g><path style="opacity:1" fill="#0fb6ea" d="M 95.5,198.5 C 96.4215,208.127 96.7548,217.794 96.5,227.5C 96.6106,229.648 95.944,229.981 94.5,228.5C 92.6322,230.261 91.2989,232.261 90.5,234.5C 90.7692,232.571 90.2692,230.905 89,229.5C 88.6667,221.167 88.3333,212.833 88,204.5C 87.7679,203.263 87.2679,202.263 86.5,201.5C 86.3505,200.448 86.5172,199.448 87,198.5C 90.0578,200.537 92.8911,200.537 95.5,198.5 Z"/></g>
<g><path style="opacity:0.778" fill="#247a99" d="M 95.5,197.5 C 96.2679,198.263 96.7679,199.263 97,200.5C 97.2193,209.88 97.7193,219.213 98.5,228.5C 97.8333,228.167 97.1667,227.833 96.5,227.5C 96.7548,217.794 96.4215,208.127 95.5,198.5C 95.5,198.167 95.5,197.833 95.5,197.5 Z"/></g>
<g><path style="opacity:0.938" fill="#207898" d="M 86.5,201.5 C 87.2679,202.263 87.7679,203.263 88,204.5C 88.3333,212.833 88.6667,221.167 89,229.5C 90.2692,230.905 90.7692,232.571 90.5,234.5C 88.5541,232.266 87.3874,229.599 87,226.5C 86.5003,218.173 86.3336,209.84 86.5,201.5 Z"/></g>
<g><path style="opacity:0.733" fill="#236c8a" d="M 176.5,200.5 C 175.938,210.318 175.271,219.984 174.5,229.5C 174.334,220.827 174.5,212.16 175,203.5C 175.232,202.263 175.732,201.263 176.5,200.5 Z"/></g>
<g><path style="opacity:0.733" fill="#26647c" d="M 164.5,228.5 C 164.267,230.062 163.6,231.395 162.5,232.5C 161.833,232.5 161.167,232.5 160.5,232.5C 161.5,230.833 162.833,229.5 164.5,228.5 Z"/></g>
<g><path style="opacity:0.345" fill="#1d6b87" d="M 152.5,231.5 C 155.054,232.388 157.721,232.721 160.5,232.5C 159.378,233.156 158.045,233.489 156.5,233.5C 154.667,233.415 153.334,232.748 152.5,231.5 Z"/></g>
<g><path style="opacity:1" fill="#18a2d0" d="M 114.5,173.5 C 114.5,191.5 114.5,209.5 114.5,227.5C 116.199,227.66 117.866,227.494 119.5,227C 118.552,226.517 117.552,226.351 116.5,226.5C 117.36,225.018 118.36,223.185 119.5,221C 118.99,219.174 118.156,219.007 117,220.5C 116.333,217.167 116.333,213.833 117,210.5C 118.356,209.62 119.856,209.286 121.5,209.5C 121.83,216.2 121.497,222.866 120.5,229.5C 119.5,229.833 118.833,230.5 118.5,231.5C 119.808,232.626 121.142,232.626 122.5,231.5C 120.396,237.272 116.396,240.939 110.5,242.5C 106.466,242.495 102.466,242.162 98.5,241.5C 94.5865,240.55 91.9198,238.217 90.5,234.5C 91.2989,232.261 92.6322,230.261 94.5,228.5C 95.944,229.981 96.6106,229.648 96.5,227.5C 97.1667,227.833 97.8333,228.167 98.5,228.5C 101.205,232.17 104.872,233.337 109.5,232C 111.049,230.786 112.215,229.286 113,227.5C 113.168,209.329 113.668,191.329 114.5,173.5 Z"/></g>
<g><path style="opacity:1" fill="#19abda" d="M 139.5,228.5 C 141.419,231.319 143.585,233.986 146,236.5C 147.332,235.838 148.498,234.672 149.5,233C 149.034,231.701 149.034,230.201 149.5,228.5C 150.272,229.694 151.272,230.694 152.5,231.5C 153.334,232.748 154.667,233.415 156.5,233.5C 158.045,233.489 159.378,233.156 160.5,232.5C 161.167,232.5 161.833,232.5 162.5,232.5C 162.681,234.029 163.014,235.696 163.5,237.5C 164.833,238.833 166.167,238.833 167.5,237.5C 166.391,235.786 167.058,235.119 169.5,235.5C 169.281,234.325 169.614,233.325 170.5,232.5C 171.527,233.791 172.527,233.791 173.5,232.5C 170.885,238.12 166.552,241.453 160.5,242.5C 156.802,242.448 153.135,242.114 149.5,241.5C 143.925,238.921 140.592,234.588 139.5,228.5 Z"/></g>
<g><path style="opacity:0.498" fill="#186481" d="M 98.5,241.5 C 102.466,242.162 106.466,242.495 110.5,242.5C 109.207,243.158 107.707,243.492 106,243.5C 103.179,243.592 100.679,242.926 98.5,241.5 Z"/></g>
<g><path style="opacity:0.478" fill="#165a77" d="M 149.5,241.5 C 153.135,242.114 156.802,242.448 160.5,242.5C 156.71,243.902 153.044,243.569 149.5,241.5 Z"/></g>
</svg>
