<?xml version="1.0" encoding="UTF-8"?>
<!DOCTYPE svg PUBLIC "-//W3C//DTD SVG 1.1//EN" "http://www.w3.org/Graphics/SVG/1.1/DTD/svg11.dtd">
<svg xmlns="http://www.w3.org/2000/svg" version="1.1" width="272px" height="70px" style="shape-rendering:geometricPrecision; text-rendering:geometricPrecision; image-rendering:optimizeQuality; fill-rule:evenodd; clip-rule:evenodd" xmlns:xlink="http://www.w3.org/1999/xlink">
<g><path style="opacity:1" fill="#13a7d8" d="M 46.5,9.5 C 47.172,10.2674 48.0053,10.9341 49,11.5C 49.4974,14.146 49.6641,16.8127 49.5,19.5C 49.5,19.8333 49.5,20.1667 49.5,20.5C 48.1667,20.5 47.5,19.8333 47.5,18.5C 47.5,16.5 47.5,14.5 47.5,12.5C 45.5,12.1667 43.5,11.8333 41.5,11.5C 40.8333,11.5 40.5,11.8333 40.5,12.5C 39.6618,12.1583 39.3284,11.4916 39.5,10.5C 40.3121,9.00691 41.6455,8.34024 43.5,8.5C 44.7261,8.51954 45.7261,8.85287 46.5,9.5 Z"/></g>
<g><path style="opacity:1" fill="#159fce" d="M 35.5,10.5 C 34.5084,10.3284 33.8417,10.6618 33.5,11.5C 29.9152,11.2917 27.2485,12.625 25.5,15.5C 25.5,16.8333 24.8333,17.5 23.5,17.5C 22.8826,17.3893 22.3826,17.056 22,16.5C 19.6843,18.4704 17.8509,20.8037 16.5,23.5C 18.7724,24.1342 20.4391,25.4676 21.5,27.5C 19.3071,26.3195 16.9738,25.3195 14.5,24.5C 13.7348,25.6119 12.7348,26.2786 11.5,26.5C 14.6764,16.821 21.1764,10.821 31,8.5C 33.0081,8.30684 34.5081,8.9735 35.5,10.5 Z"/></g>
<g><path style="opacity:1" fill="#16a3d1" d="M 46.5,9.5 C 49.9128,10.3742 52.9128,12.0408 55.5,14.5C 55.5,15.8333 54.8333,16.5 53.5,16.5C 52.5416,16.0472 51.7083,15.3805 51,14.5C 50.8019,16.3817 50.3019,18.0484 49.5,19.5C 49.6641,16.8127 49.4974,14.146 49,11.5C 48.0053,10.9341 47.172,10.2674 46.5,9.5 Z"/></g>
<g><path style="opacity:1" fill="#14a4d3" d="M 33.5,11.5 C 33.8417,10.6618 34.5084,10.3284 35.5,10.5C 36.3247,14.6472 36.8247,18.9805 37,23.5C 37.3333,19.5 37.6667,15.5 38,11.5C 38.3826,10.944 38.8826,10.6107 39.5,10.5C 39.3284,11.4916 39.6618,12.1583 40.5,12.5C 40.7252,17.248 40.2252,21.9147 39,26.5C 37.8545,27.6843 36.6879,27.6843 35.5,26.5C 35.1667,26.5 34.8333,26.5 34.5,26.5C 34.5,25.8333 34.5,25.1667 34.5,24.5C 34.8182,19.9677 34.4849,15.6344 33.5,11.5 Z"/></g>
<g><path style="opacity:0.441" fill="#167ca2" d="M 33.5,11.5 C 34.4849,15.6344 34.8182,19.9677 34.5,24.5C 33.1667,25.1667 33.1667,25.8333 34.5,26.5C 34.5,26.8333 34.5,27.1667 34.5,27.5C 32.8235,26.8166 32.1568,25.4832 32.5,23.5C 33.4834,19.7016 33.8168,15.7016 33.5,11.5 Z"/></g>
<g><path style="opacity:0.983" fill="#179bc7" d="M 25.5,15.5 C 28.5725,17.5691 30.9059,20.2358 32.5,23.5C 31.8333,25.5 31.1667,27.5 30.5,29.5C 30.6602,27.8008 30.4935,26.1341 30,24.5C 27.6278,22.2968 25.4611,19.9635 23.5,17.5C 24.8333,17.5 25.5,16.8333 25.5,15.5 Z"/></g>
<g><path style="opacity:0.898" fill="#1493c0" d="M 47.5,18.5 C 47.5,19.8333 48.1667,20.5 49.5,20.5C 47.8333,22.8333 45.8333,24.8333 43.5,26.5C 43.6716,25.5084 43.3382,24.8417 42.5,24.5C 43.4194,21.9108 45.086,19.9108 47.5,18.5 Z"/></g>
<g><path style="opacity:1" fill="#169ac5" d="M 55.5,14.5 C 62.2829,21.0877 64.7829,29.0877 63,38.5C 62.7216,39.4158 62.2216,40.0825 61.5,40.5C 62.9929,35.7838 62.8263,31.1171 61,26.5C 60.5034,28.8098 60.3367,31.1432 60.5,33.5C 56.351,32.9197 52.6843,33.5864 49.5,35.5C 48.5,35.1667 47.8333,34.5 47.5,33.5C 47.8333,32.5 48.5,31.8333 49.5,31.5C 52.6248,32.4794 55.9581,32.8128 59.5,32.5C 59.7954,29.2659 59.1287,26.2659 57.5,23.5C 56.8182,24.2427 56.1515,24.9094 55.5,25.5C 55.5,24.1667 54.8333,23.5 53.5,23.5C 56.1667,21.1667 56.1667,18.8333 53.5,16.5C 54.8333,16.5 55.5,15.8333 55.5,14.5 Z"/></g>
<g><path style="opacity:0.949" fill="#afb0b3" d="M 171.5,22.5 C 170.931,25.3345 169.264,27.0012 166.5,27.5C 164.909,24.3349 165.909,22.0016 169.5,20.5C 170.522,20.8555 171.189,21.5222 171.5,22.5 Z"/></g>
<g><path style="opacity:0.725" fill="#3e858d" d="M 221.5,21.5 C 220.081,22.4511 218.415,22.7845 216.5,22.5C 216.768,24.099 216.434,25.4324 215.5,26.5C 214.345,21.3289 216.345,19.6623 221.5,21.5 Z"/></g>
<g><path style="opacity:0.876" fill="#8fe2ef" d="M 221.5,21.5 C 222.791,21.2627 223.791,21.596 224.5,22.5C 222.631,23.1646 220.631,23.8313 218.5,24.5C 218.137,25.1835 217.804,25.8501 217.5,26.5C 217.068,27.7095 216.401,28.7095 215.5,29.5C 215.5,28.8333 215.5,28.1667 215.5,27.5C 215.5,27.1667 215.5,26.8333 215.5,26.5C 216.434,25.4324 216.768,24.099 216.5,22.5C 218.415,22.7845 220.081,22.4511 221.5,21.5 Z"/></g>
<g><path style="opacity:1" fill="#acaeb0" d="M 78.5,22.5 C 77.5449,24.7099 76.0449,25.0432 74,23.5C 72.6682,25.5495 72.5015,27.5495 73.5,29.5C 73.5,30.1667 73.5,30.8333 73.5,31.5C 73.1667,32.5 72.5,33.1667 71.5,33.5C 71.5,29.8333 71.5,26.1667 71.5,22.5C 74.0048,21.5829 76.3382,21.5829 78.5,22.5 Z"/></g>
<g><path style="opacity:1" fill="#7ac7d9" d="M 244.5,21.5 C 245.833,22.1667 247.167,22.8333 248.5,23.5C 246.5,23.5 244.5,23.5 242.5,23.5C 242.5,25.5 242.5,27.5 242.5,29.5C 242.5,30.1667 242.167,30.5 241.5,30.5C 241.5,27.8333 241.5,25.1667 241.5,22.5C 242.391,21.8902 243.391,21.5569 244.5,21.5 Z"/></g>
<g><path style="opacity:1" fill="#12a1d1" d="M 53.5,23.5 C 54.8333,23.5 55.5,24.1667 55.5,25.5C 53.8333,27.8333 51.8333,29.8333 49.5,31.5C 48.5,31.8333 47.8333,32.5 47.5,33.5C 46.8333,33.5 46.1667,33.5 45.5,33.5C 46.1098,32.609 46.4431,31.609 46.5,30.5C 48.5,27.8333 50.8333,25.5 53.5,23.5 Z"/></g>
<g><path style="opacity:1" fill="#afb0b2" d="M 98.5,22.5 C 98.5,24.5 98.5,26.5 98.5,28.5C 97.8333,28.1667 97.1667,27.8333 96.5,27.5C 95.4324,26.5655 94.099,26.2322 92.5,26.5C 92.4326,25.0413 92.7659,23.7079 93.5,22.5C 95.1667,21.1667 96.8333,21.1667 98.5,22.5 Z"/></g>
<g><path style="opacity:1" fill="#a4a6a9" d="M 78.5,22.5 C 79.9744,23.4363 80.9744,24.7697 81.5,26.5C 81.0046,28.4817 80.5046,30.4817 80,32.5C 78.4918,30.1616 76.3252,29.1616 73.5,29.5C 72.5015,27.5495 72.6682,25.5495 74,23.5C 76.0449,25.0432 77.5449,24.7099 78.5,22.5 Z"/></g>
<g><path style="opacity:1" fill="#868b8e" d="M 171.5,22.5 C 173.377,23.6591 173.877,25.3258 173,27.5C 170.707,30.1339 168.54,30.1339 166.5,27.5C 169.264,27.0012 170.931,25.3345 171.5,22.5 Z"/></g>
<g><path style="opacity:1" fill="#2dc3e9" d="M 248.5,23.5 C 248.5,24.8333 248.5,26.1667 248.5,27.5C 246.684,29.4414 244.684,30.1081 242.5,29.5C 242.5,27.5 242.5,25.5 242.5,23.5C 244.5,23.5 246.5,23.5 248.5,23.5 Z"/></g>
<g><path style="opacity:1" fill="#1a94bf" d="M 41.5,11.5 C 41.1818,16.0323 41.5151,20.3656 42.5,24.5C 43.3382,24.8417 43.6716,25.5084 43.5,26.5C 43.8923,28.1789 44.3923,29.8455 45,31.5C 45.3826,30.944 45.8826,30.6107 46.5,30.5C 46.4431,31.609 46.1098,32.609 45.5,33.5C 45.2283,36.7322 43.5616,38.7322 40.5,39.5C 42.0311,38.0755 41.6977,37.4088 39.5,37.5C 41.3332,35.5043 41.8332,33.171 41,30.5C 38.8687,29.3852 37.0354,28.0519 35.5,26.5C 36.6879,27.6843 37.8545,27.6843 39,26.5C 40.2252,21.9147 40.7252,17.248 40.5,12.5C 40.5,11.8333 40.8333,11.5 41.5,11.5 Z"/></g>
<g><path style="opacity:0.886" fill="#adadaf" d="M 93.5,22.5 C 92.7659,23.7079 92.4326,25.0413 92.5,26.5C 94.099,26.2322 95.4324,26.5655 96.5,27.5C 95.5041,27.4142 94.6708,27.7476 94,28.5C 92.9571,31.7568 92.4571,35.0901 92.5,38.5C 92.1667,38.5 91.8333,38.5 91.5,38.5C 90.8872,32.7291 91.5539,27.3958 93.5,22.5 Z"/></g>
<g><path style="opacity:1" fill="#9fa1a3" d="M 154.5,25.5 C 154.5,26.8333 154.5,28.1667 154.5,29.5C 151.478,29.3419 149.478,30.6752 148.5,33.5C 147.1,34.0998 146.1,35.0998 145.5,36.5C 145.5,34.8333 145.5,33.1667 145.5,31.5C 146.5,31.5 147.5,31.5 148.5,31.5C 148.5,29.5 148.5,27.5 148.5,25.5C 150.5,25.5 152.5,25.5 154.5,25.5 Z"/></g>
<g><path style="opacity:1" fill="#369bce" d="M 217.5,26.5 C 219.833,26.5 222.167,26.5 224.5,26.5C 224.365,28.5542 225.032,30.2209 226.5,31.5C 225.883,31.6107 225.383,31.944 225,32.5C 224.503,34.8098 224.337,37.1432 224.5,39.5C 223.326,38.4863 222.66,37.153 222.5,35.5C 222.5,34.5 222.5,33.5 222.5,32.5C 221.167,32.5 219.833,32.5 218.5,32.5C 218.5,33.8333 218.5,35.1667 218.5,36.5C 217.25,36.4226 216.417,35.756 216,34.5C 215.329,35.2524 214.496,35.5858 213.5,35.5C 214.363,33.5786 215.029,31.5786 215.5,29.5C 216.401,28.7095 217.068,27.7095 217.5,26.5 Z"/></g>
<g><path style="opacity:1" fill="#38aad0" d="M 224.5,22.5 C 227.284,26.4047 229.284,30.738 230.5,35.5C 228.806,34.4726 227.473,33.1392 226.5,31.5C 225.032,30.2209 224.365,28.5542 224.5,26.5C 222.167,26.5 219.833,26.5 217.5,26.5C 217.804,25.8501 218.137,25.1835 218.5,24.5C 220.631,23.8313 222.631,23.1646 224.5,22.5 Z"/></g>
<g><path style="opacity:1" fill="#3ca9da" d="M 248.5,27.5 C 248.567,28.9587 248.234,30.2921 247.5,31.5C 244.628,32.2501 242.628,33.9168 241.5,36.5C 241.5,34.5 241.5,32.5 241.5,30.5C 242.167,30.5 242.5,30.1667 242.5,29.5C 244.684,30.1081 246.684,29.4414 248.5,27.5 Z"/></g>
<g><path style="opacity:1" fill="#838587" d="M 154.5,25.5 C 155.461,27.2646 155.795,29.2646 155.5,31.5C 157.781,31.0773 159.448,31.744 160.5,33.5C 156.336,33.1255 152.336,33.1255 148.5,33.5C 149.478,30.6752 151.478,29.3419 154.5,29.5C 154.5,28.1667 154.5,26.8333 154.5,25.5 Z"/></g>
<g><path style="opacity:1" fill="#88898e" d="M 96.5,27.5 C 97.1667,27.8333 97.8333,28.1667 98.5,28.5C 98.8134,31.2469 98.48,33.9135 97.5,36.5C 94.3081,33.882 92.9748,34.882 93.5,39.5C 93.5,39.8333 93.5,40.1667 93.5,40.5C 92.8333,40.5 92.5,40.1667 92.5,39.5C 92.5,39.1667 92.5,38.8333 92.5,38.5C 92.4571,35.0901 92.9571,31.7568 94,28.5C 94.6708,27.7476 95.5041,27.4142 96.5,27.5 Z"/></g>
<g><path style="opacity:1" fill="#1597c3" d="M 30.5,29.5 C 30.5,31.5 30.5,33.5 30.5,35.5C 28.5,34.1667 26.5,34.1667 24.5,35.5C 24.5912,33.3023 23.9245,32.9689 22.5,34.5C 22.2671,32.9382 21.6005,31.6049 20.5,30.5C 22.0174,30.5106 23.1841,31.1772 24,32.5C 24.4643,31.9056 24.631,31.2389 24.5,30.5C 26.8311,31.9952 28.8311,31.6618 30.5,29.5 Z"/></g>
<g><path style="opacity:0.994" fill="#0fb0e2" d="M 61.5,40.5 C 59.7973,41.6602 59.1307,40.9935 59.5,38.5C 59.5,37.5 59.5,36.5 59.5,35.5C 56.1667,35.5 52.8333,35.5 49.5,35.5C 52.6843,33.5864 56.351,32.9197 60.5,33.5C 60.3367,31.1432 60.5034,28.8098 61,26.5C 62.8263,31.1171 62.9929,35.7838 61.5,40.5 Z"/></g>
<g><path style="opacity:1" fill="#77797e" d="M 73.5,31.5 C 77.2059,31.4986 79.5392,33.1653 80.5,36.5C 80.1667,36.5 79.8333,36.5 79.5,36.5C 79.1667,35.1667 78.8333,35.1667 78.5,36.5C 78.5,37.1667 78.5,37.8333 78.5,38.5C 76.2258,39.9516 74.7258,39.285 74,36.5C 73.6012,36.7284 73.4346,37.0618 73.5,37.5C 72.8333,37.5 72.1667,37.5 71.5,37.5C 71.5,36.1667 71.5,34.8333 71.5,33.5C 72.5,33.1667 73.1667,32.5 73.5,31.5 Z"/></g>
<g><path style="opacity:1" fill="#8b8e91" d="M 81.5,26.5 C 83.5475,28.5496 85.2141,30.883 86.5,33.5C 84.4123,34.2008 82.4123,35.2008 80.5,36.5C 79.5392,33.1653 77.2059,31.4986 73.5,31.5C 73.5,30.8333 73.5,30.1667 73.5,29.5C 76.3252,29.1616 78.4918,30.1616 80,32.5C 80.5046,30.4817 81.0046,28.4817 81.5,26.5 Z"/></g>
<g><path style="opacity:1" fill="#696b70" d="M 160.5,33.5 C 160.5,34.8333 160.5,36.1667 160.5,37.5C 158.585,37.2155 156.919,37.5489 155.5,38.5C 151.237,38.3681 149.237,40.3681 149.5,44.5C 149.5,46.1667 149.5,47.8333 149.5,49.5C 148.677,46.023 148.177,42.3563 148,38.5C 147.005,37.9341 146.172,37.2674 145.5,36.5C 146.1,35.0998 147.1,34.0998 148.5,33.5C 152.336,33.1255 156.336,33.1255 160.5,33.5 Z"/></g>
<g><path style="opacity:0.922" fill="#97979a" d="M 141.5,33.5 C 138.076,34.2137 134.41,34.2137 130.5,33.5C 128.823,34.1869 127.156,34.8535 125.5,35.5C 126.122,33.665 127.456,32.4983 129.5,32C 133.802,30.994 137.802,31.494 141.5,33.5 Z"/></g>
<g><path style="opacity:1" fill="#74787c" d="M 194.5,33.5 C 195.167,33.5 195.5,33.8333 195.5,34.5C 195.649,35.552 195.483,36.552 195,37.5C 191.359,36.1941 187.859,35.5275 184.5,35.5C 184.811,34.5222 185.478,33.8555 186.5,33.5C 189.368,33.7331 192.035,33.7331 194.5,33.5 Z"/></g>
<g><path style="opacity:1" fill="#2a6c9f" d="M 222.5,35.5 C 221.778,35.0825 221.278,34.4158 221,33.5C 220.626,35.4913 219.793,37.158 218.5,38.5C 218.5,37.8333 218.5,37.1667 218.5,36.5C 218.5,35.1667 218.5,33.8333 218.5,32.5C 219.833,32.5 221.167,32.5 222.5,32.5C 222.5,33.5 222.5,34.5 222.5,35.5 Z"/></g>
<g><path style="opacity:1" fill="#4696d5" d="M 247.5,31.5 C 247.107,33.2838 246.441,34.9505 245.5,36.5C 242.924,38.8875 241.924,41.8875 242.5,45.5C 242.5,47.8333 242.5,50.1667 242.5,52.5C 241.512,47.3595 241.179,42.0262 241.5,36.5C 242.628,33.9168 244.628,32.2501 247.5,31.5 Z"/></g>
<g><path style="opacity:1" fill="#14a5d5" d="M 32.5,23.5 C 32.1568,25.4832 32.8235,26.8166 34.5,27.5C 33.9862,29.3664 33.3195,31.1997 32.5,33C 32.9567,34.9402 33.9567,36.4402 35.5,37.5C 34.1667,37.5 33.5,38.1667 33.5,39.5C 31.7376,38.7377 30.7376,37.4044 30.5,35.5C 30.5,33.5 30.5,31.5 30.5,29.5C 31.1667,27.5 31.8333,25.5 32.5,23.5 Z"/></g>
<g><path style="opacity:1" fill="#76787d" d="M 117.5,32.5 C 118.71,32.9321 119.71,33.5987 120.5,34.5C 118.958,35.1635 117.291,35.8302 115.5,36.5C 116.63,37.6223 117.297,38.9557 117.5,40.5C 116.5,39.8333 115.5,39.1667 114.5,38.5C 113.428,36.1602 111.761,35.8269 109.5,37.5C 108.482,36.8075 107.482,36.1408 106.5,35.5C 107.347,34.0337 108.68,33.2004 110.5,33C 113.127,32.7308 115.46,32.5641 117.5,32.5 Z"/></g>
<g><path style="opacity:1" fill="#78b0d1" d="M 215.5,27.5 C 215.5,28.1667 215.5,28.8333 215.5,29.5C 215.029,31.5786 214.363,33.5786 213.5,35.5C 212.855,37.8263 211.522,39.493 209.5,40.5C 211.137,35.8847 213.137,31.5514 215.5,27.5 Z"/></g>
<g><path style="opacity:1" fill="#67696e" d="M 86.5,33.5 C 88.3947,34.973 90.0613,36.6397 91.5,38.5C 91.5,39.1667 91.8333,39.5 92.5,39.5C 92.5,40.1667 92.8333,40.5 93.5,40.5C 93.44,41.0431 93.1067,41.3764 92.5,41.5C 91.1861,40.6872 90.0195,39.6872 89,38.5C 88.3645,39.9663 87.5312,41.2997 86.5,42.5C 87.1272,43.4168 87.4606,44.4168 87.5,45.5C 84.8154,42.8103 82.4821,39.8103 80.5,36.5C 82.4123,35.2008 84.4123,34.2008 86.5,33.5 Z"/></g>
<g><path style="opacity:1" fill="#5d6064" d="M 99.5,38.5 C 98.5489,39.9187 98.2155,41.5853 98.5,43.5C 95.9623,43.169 94.2957,41.8357 93.5,39.5C 92.9748,34.882 94.3081,33.882 97.5,36.5C 98.48,33.9135 98.8134,31.2469 98.5,28.5C 98.5,26.5 98.5,24.5 98.5,22.5C 99.5,27.0679 99.8334,32.4012 99.5,38.5 Z"/></g>
<g><path style="opacity:1" fill="#5b5e63" d="M 106.5,35.5 C 107.482,36.1408 108.482,36.8075 109.5,37.5C 111.761,35.8269 113.428,36.1602 114.5,38.5C 112.012,37.3991 110.012,38.0657 108.5,40.5C 106.901,41.562 105.234,41.562 103.5,40.5C 103.75,38.326 104.75,36.6594 106.5,35.5 Z"/></g>
<g><path style="opacity:0.886" fill="#717478" d="M 120.5,34.5 C 121.401,35.2905 122.068,36.2905 122.5,37.5C 122.631,38.2389 122.464,38.9056 122,39.5C 121.311,38.6433 120.478,37.9767 119.5,37.5C 118.526,39.7427 118.192,42.076 118.5,44.5C 116.927,47.8931 114.26,49.2264 110.5,48.5C 109.833,47.8333 109.167,47.1667 108.5,46.5C 108.5,46.1667 108.5,45.8333 108.5,45.5C 113.975,48.7292 116.975,47.0626 117.5,40.5C 117.297,38.9557 116.63,37.6223 115.5,36.5C 117.291,35.8302 118.958,35.1635 120.5,34.5 Z"/></g>
<g><path style="opacity:1" fill="#73767a" d="M 141.5,33.5 C 142.338,33.8417 142.672,34.5084 142.5,35.5C 142.672,36.4916 142.338,37.1583 141.5,37.5C 141.631,36.7611 141.464,36.0944 141,35.5C 138.775,36.2374 136.441,36.2374 134,35.5C 132.033,35.5419 130.199,36.0419 128.5,37C 129.056,37.3826 129.389,37.8826 129.5,38.5C 127.596,38.2624 126.262,37.2624 125.5,35.5C 127.156,34.8535 128.823,34.1869 130.5,33.5C 134.41,34.2137 138.076,34.2137 141.5,33.5 Z"/></g>
<g><path style="opacity:1" fill="#818386" d="M 194.5,33.5 C 192.035,33.7331 189.368,33.7331 186.5,33.5C 185.478,33.8555 184.811,34.5222 184.5,35.5C 182.139,35.6741 179.806,36.0074 177.5,36.5C 177.5,37.8333 177.5,39.1667 177.5,40.5C 177.183,44.7016 177.517,48.7016 178.5,52.5C 180.099,52.2322 181.432,52.5655 182.5,53.5C 180.5,53.5 178.5,53.5 176.5,53.5C 176.5,46.1667 176.5,38.8333 176.5,31.5C 179.394,31.0423 181.894,31.709 184,33.5C 186.841,31.4963 190.007,30.9963 193.5,32C 194.056,32.3826 194.389,32.8826 194.5,33.5 Z"/></g>
<g><path style="opacity:1" fill="#388ece" d="M 226.5,31.5 C 227.473,33.1392 228.806,34.4726 230.5,35.5C 230.5,36.8333 229.833,37.5 228.5,37.5C 226.876,35.8632 225.876,36.1966 225.5,38.5C 226.156,40.4534 226.489,42.4534 226.5,44.5C 225.463,43.0697 224.796,41.403 224.5,39.5C 224.337,37.1432 224.503,34.8098 225,32.5C 225.383,31.944 225.883,31.6107 226.5,31.5 Z"/></g>
<g><path style="opacity:1" fill="#16a8d9" d="M 21.5,27.5 C 22.8333,28.1667 23.8333,29.1667 24.5,30.5C 24.631,31.2389 24.4643,31.9056 24,32.5C 23.1841,31.1772 22.0174,30.5106 20.5,30.5C 15.8552,26.4107 13.8552,27.744 14.5,34.5C 17.1667,34.5 19.8333,34.5 22.5,34.5C 23.9245,32.9689 24.5912,33.3023 24.5,35.5C 21.272,36.4137 17.9387,36.7471 14.5,36.5C 13.6201,38.6112 13.6201,40.6112 14.5,42.5C 13.2101,41.9423 12.3768,40.9423 12,39.5C 11.501,35.1794 11.3343,30.8461 11.5,26.5C 12.7348,26.2786 13.7348,25.6119 14.5,24.5C 16.9738,25.3195 19.3071,26.3195 21.5,27.5 Z"/></g>
<g><path style="opacity:1" fill="#686b70" d="M 141.5,37.5 C 140.143,38.5903 139.143,39.9236 138.5,41.5C 138.672,40.5084 138.338,39.8417 137.5,39.5C 136.866,38.0532 135.699,37.3866 134,37.5C 132.467,37.7728 130.967,38.1062 129.5,38.5C 129.389,37.8826 129.056,37.3826 128.5,37C 130.199,36.0419 132.033,35.5419 134,35.5C 136.441,36.2374 138.775,36.2374 141,35.5C 141.464,36.0944 141.631,36.7611 141.5,37.5 Z"/></g>
<g><path style="opacity:1" fill="#616368" d="M 195.5,34.5 C 197.074,36.1016 197.741,38.1016 197.5,40.5C 195.886,42.0746 193.886,42.7413 191.5,42.5C 191.5,43.5 191.5,44.5 191.5,45.5C 191.5,47.8333 191.5,50.1667 191.5,52.5C 193.5,52.5 195.5,52.5 197.5,52.5C 197.631,53.2389 197.464,53.9056 197,54.5C 194.959,53.5769 192.792,53.2436 190.5,53.5C 190.666,48.8215 190.499,44.1548 190,39.5C 187.844,36.9387 185.677,36.9387 183.5,39.5C 181.925,41.7861 179.925,42.1194 177.5,40.5C 177.5,39.1667 177.5,37.8333 177.5,36.5C 179.806,36.0074 182.139,35.6741 184.5,35.5C 187.859,35.5275 191.359,36.1941 195,37.5C 195.483,36.552 195.649,35.552 195.5,34.5 Z"/></g>
<g><path style="opacity:1" fill="#3a7bb9" d="M 230.5,35.5 C 233.284,39.4047 235.284,43.738 236.5,48.5C 234.937,47.0552 233.604,45.3885 232.5,43.5C 231.078,41.4883 229.745,39.4883 228.5,37.5C 229.833,37.5 230.5,36.8333 230.5,35.5 Z"/></g>
<g><path style="opacity:0.992" fill="#1992bb" d="M 24.5,35.5 C 24.4226,36.7498 23.756,37.5831 22.5,38C 19.9032,38.281 17.5699,38.4477 15.5,38.5C 15.8333,39.1667 16.1667,39.8333 16.5,40.5C 20.4546,40.9911 24.1213,41.9911 27.5,43.5C 23.7754,43.4051 20.1087,43.2384 16.5,43C 18.9269,43.9023 21.2603,44.7356 23.5,45.5C 19.8453,46.075 16.8453,45.075 14.5,42.5C 13.6201,40.6112 13.6201,38.6112 14.5,36.5C 17.9387,36.7471 21.272,36.4137 24.5,35.5 Z"/></g>
<g><path style="opacity:1" fill="#45464c" d="M 78.5,38.5 C 78.7989,40.604 78.4656,42.604 77.5,44.5C 76.2638,43.7542 74.9305,43.4208 73.5,43.5C 73.5,41.5 73.5,39.5 73.5,37.5C 73.4346,37.0618 73.6012,36.7284 74,36.5C 74.7258,39.285 76.2258,39.9516 78.5,38.5 Z"/></g>
<g><path style="opacity:1" fill="#929295" d="M 117.5,32.5 C 115.46,32.5641 113.127,32.7308 110.5,33C 108.68,33.2004 107.347,34.0337 106.5,35.5C 104.75,36.6594 103.75,38.326 103.5,40.5C 102.539,42.2646 102.205,44.2646 102.5,46.5C 100.162,37.6423 103.662,32.6423 113,31.5C 114.707,31.5085 116.207,31.8418 117.5,32.5 Z"/></g>
<g><path style="opacity:1" fill="#5d5e64" d="M 172.5,33.5 C 172.708,35.9201 172.374,38.2534 171.5,40.5C 170.311,41.4287 168.978,41.762 167.5,41.5C 167.5,42.5 167.5,43.5 167.5,44.5C 167.5,47.1667 167.5,49.8333 167.5,52.5C 166.528,46.33 166.528,39.9966 167.5,33.5C 169.167,33.5 170.833,33.5 172.5,33.5 Z"/></g>
<g><path style="opacity:1" fill="#2f76c0" d="M 218.5,36.5 C 218.5,37.1667 218.5,37.8333 218.5,38.5C 218.204,40.403 217.537,42.0697 216.5,43.5C 216.5,42.5 216.5,41.5 216.5,40.5C 213.805,40.6815 211.472,41.6815 209.5,43.5C 209.5,42.8333 209.5,42.1667 209.5,41.5C 209.5,41.1667 209.5,40.8333 209.5,40.5C 211.522,39.493 212.855,37.8263 213.5,35.5C 214.496,35.5858 215.329,35.2524 216,34.5C 216.417,35.756 217.25,36.4226 218.5,36.5 Z"/></g>
<g><path style="opacity:0.737" fill="#838486" d="M 137.5,39.5 C 138.338,39.8417 138.672,40.5084 138.5,41.5C 135.287,41.19 132.287,41.5233 129.5,42.5C 126.828,44.3914 125.828,47.0581 126.5,50.5C 123.831,46.9637 124.497,43.797 128.5,41C 131.695,40.8195 134.695,40.3195 137.5,39.5 Z"/></g>
<g><path style="opacity:1" fill="#515359" d="M 142.5,35.5 C 143.338,35.8417 143.672,36.5084 143.5,37.5C 143.5,39.1667 143.5,40.8333 143.5,42.5C 139.378,42.6597 135.044,42.6597 130.5,42.5C 130.167,42.5 129.833,42.5 129.5,42.5C 132.287,41.5233 135.287,41.19 138.5,41.5C 139.143,39.9236 140.143,38.5903 141.5,37.5C 142.338,37.1583 142.672,36.4916 142.5,35.5 Z"/></g>
<g><path style="opacity:1" fill="#3f4146" d="M 155.5,38.5 C 155.5,40.1667 155.5,41.8333 155.5,43.5C 153.565,44.1495 151.565,44.4828 149.5,44.5C 149.237,40.3681 151.237,38.3681 155.5,38.5 Z"/></g>
<g><path style="opacity:1" fill="#1aa0cd" d="M 35.5,41.5 C 36.647,45.6463 36.8136,49.9796 36,54.5C 34.8139,56.6766 32.9806,57.6766 30.5,57.5C 30.7822,56.2223 31.4489,55.2223 32.5,54.5C 32.8651,49.9063 33.8651,45.573 35.5,41.5 Z"/></g>
<g><path style="opacity:1" fill="#414247" d="M 103.5,40.5 C 105.234,41.562 106.901,41.562 108.5,40.5C 108.5,42.1667 108.5,43.8333 108.5,45.5C 108.5,45.8333 108.5,46.1667 108.5,46.5C 107.33,44.7215 105.664,43.7215 103.5,43.5C 103.5,45.1667 103.5,46.8333 103.5,48.5C 102.662,48.1583 102.328,47.4916 102.5,46.5C 102.205,44.2646 102.539,42.2646 103.5,40.5 Z"/></g>
<g><path style="opacity:1" fill="#43464b" d="M 122.5,37.5 C 123.738,39.2143 124.405,41.2143 124.5,43.5C 122.435,43.5172 120.435,43.8505 118.5,44.5C 118.192,42.076 118.526,39.7427 119.5,37.5C 120.478,37.9767 121.311,38.6433 122,39.5C 122.464,38.9056 122.631,38.2389 122.5,37.5 Z"/></g>
<g><path style="opacity:1" fill="#3273c9" d="M 228.5,37.5 C 229.745,39.4883 231.078,41.4883 232.5,43.5C 231.153,42.8288 229.986,42.8288 229,43.5C 228.506,45.1341 228.34,46.8008 228.5,48.5C 227.326,47.4863 226.66,46.153 226.5,44.5C 226.489,42.4534 226.156,40.4534 225.5,38.5C 225.876,36.1966 226.876,35.8632 228.5,37.5 Z"/></g>
<g><path style="opacity:1" fill="#2263b3" d="M 245.5,36.5 C 247.727,38.2287 248.727,40.562 248.5,43.5C 247.883,43.3893 247.383,43.056 247,42.5C 246.092,44.4386 244.592,45.4386 242.5,45.5C 241.924,41.8875 242.924,38.8875 245.5,36.5 Z"/></g>
<g><path style="opacity:0.557" fill="#3574a3" d="M 244.5,21.5 C 246.167,21.5 247.833,21.5 249.5,21.5C 249.5,31.8333 249.5,42.1667 249.5,52.5C 249.167,52.5 248.833,52.5 248.5,52.5C 248.5,49.5 248.5,46.5 248.5,43.5C 248.727,40.562 247.727,38.2287 245.5,36.5C 246.441,34.9505 247.107,33.2838 247.5,31.5C 248.234,30.2921 248.567,28.9587 248.5,27.5C 248.5,26.1667 248.5,24.8333 248.5,23.5C 247.167,22.8333 245.833,22.1667 244.5,21.5 Z"/></g>
<g><path style="opacity:1" fill="#14a2d1" d="M 59.5,38.5 C 59.1307,40.9935 59.7973,41.6602 61.5,40.5C 61.0844,42.7525 59.751,44.2525 57.5,45C 49.3333,43.8333 45.8333,47.3333 47,55.5C 46.2917,56.3805 45.4584,57.0472 44.5,57.5C 44.2178,56.2223 43.5511,55.2223 42.5,54.5C 42.8333,54.5 43.1667,54.5 43.5,54.5C 45.3435,52.7211 46.0102,50.3878 45.5,47.5C 45.1788,45.9519 44.1788,45.2852 42.5,45.5C 44.9534,44.7828 47.2867,43.6162 49.5,42C 52.1667,41.6667 54.8333,41.3333 57.5,41C 58.0659,40.0053 58.7326,39.172 59.5,38.5 Z"/></g>
<g><path style="opacity:1" fill="#3e4147" d="M 93.5,40.5 C 93.5,40.1667 93.5,39.8333 93.5,39.5C 94.2957,41.8357 95.9623,43.169 98.5,43.5C 98.5,44.1667 98.5,44.8333 98.5,45.5C 95.7945,47.1536 93.7945,46.4869 92.5,43.5C 91.5745,44.6405 90.7412,44.6405 90,43.5C 88.9614,44.2438 88.4614,45.2438 88.5,46.5C 87.8333,46.5 87.5,46.1667 87.5,45.5C 87.4606,44.4168 87.1272,43.4168 86.5,42.5C 87.5312,41.2997 88.3645,39.9663 89,38.5C 90.0195,39.6872 91.1861,40.6872 92.5,41.5C 93.1067,41.3764 93.44,41.0431 93.5,40.5 Z"/></g>
<g><path style="opacity:0.991" fill="#303238" d="M 172.5,31.5 C 173.479,34.6248 173.813,37.9581 173.5,41.5C 173.133,44.6921 171.633,47.3587 169,49.5C 168.802,47.6183 168.302,45.9516 167.5,44.5C 167.5,43.5 167.5,42.5 167.5,41.5C 168.978,41.762 170.311,41.4287 171.5,40.5C 172.374,38.2534 172.708,35.9201 172.5,33.5C 172.5,32.8333 172.5,32.1667 172.5,31.5 Z"/></g>
<g><path style="opacity:1" fill="#3d3e44" d="M 183.5,39.5 C 183.5,41.1667 183.5,42.8333 183.5,44.5C 181.883,45.038 180.216,45.3713 178.5,45.5C 178.5,47.8333 178.5,50.1667 178.5,52.5C 177.517,48.7016 177.183,44.7016 177.5,40.5C 179.925,42.1194 181.925,41.7861 183.5,39.5 Z"/></g>
<g><path style="opacity:1" fill="#333439" d="M 108.5,46.5 C 109.167,47.1667 109.833,47.8333 110.5,48.5C 108.545,48.7986 107.211,49.7986 106.5,51.5C 104.856,51.1898 103.856,50.1898 103.5,48.5C 103.5,46.8333 103.5,45.1667 103.5,43.5C 105.664,43.7215 107.33,44.7215 108.5,46.5 Z"/></g>
<g><path style="opacity:0.373" fill="#747578" d="M 132.5,45.5 C 133.274,44.8529 134.274,44.5195 135.5,44.5C 137.03,44.6399 138.03,45.3065 138.5,46.5C 138.5,48.5 137.5,49.5 135.5,49.5C 134.209,49.7373 133.209,49.404 132.5,48.5C 134.665,48.8841 136.332,48.2174 137.5,46.5C 135.955,45.5481 134.288,45.2148 132.5,45.5 Z"/></g>
<g><path style="opacity:1" fill="#393b40" d="M 130.5,42.5 C 135.044,42.6597 139.378,42.6597 143.5,42.5C 142.791,45.5899 141.124,46.9232 138.5,46.5C 138.03,45.3065 137.03,44.6399 135.5,44.5C 134.274,44.5195 133.274,44.8529 132.5,45.5C 132.167,45.5 131.833,45.5 131.5,45.5C 130.448,45.6495 129.448,45.4828 128.5,45C 129.381,44.2917 130.047,43.4584 130.5,42.5 Z"/></g>
<g><path style="opacity:0.943" fill="#292a2f" d="M 124.5,43.5 C 123.812,46.0573 122.646,48.3907 121,50.5C 120.184,51.8228 119.017,52.4894 117.5,52.5C 114.5,52.5 111.5,52.5 108.5,52.5C 107.508,52.6716 106.842,52.3382 106.5,51.5C 107.211,49.7986 108.545,48.7986 110.5,48.5C 114.26,49.2264 116.927,47.8931 118.5,44.5C 120.435,43.8505 122.435,43.5172 124.5,43.5 Z"/></g>
<g><path style="opacity:1" fill="#222428" d="M 143.5,37.5 C 144.487,42.3054 144.821,47.3054 144.5,52.5C 141.921,52.1348 139.588,52.1348 137.5,52.5C 137.167,52.5 136.833,52.5 136.5,52.5C 134.167,52.5 131.833,52.5 129.5,52.5C 131.5,51.5 133.5,50.5 135.5,49.5C 137.5,49.5 138.5,48.5 138.5,46.5C 141.124,46.9232 142.791,45.5899 143.5,42.5C 143.5,40.8333 143.5,39.1667 143.5,37.5 Z"/></g>
<g><path style="opacity:0.057" fill="#7e7f81" d="M 172.5,31.5 C 172.5,32.1667 172.5,32.8333 172.5,33.5C 170.833,33.5 169.167,33.5 167.5,33.5C 166.528,39.9966 166.528,46.33 167.5,52.5C 169.5,52.5 171.5,52.5 173.5,52.5C 171.052,53.4731 168.385,53.8064 165.5,53.5C 165.5,46.1667 165.5,38.8333 165.5,31.5C 167.833,31.5 170.167,31.5 172.5,31.5 Z"/></g>
<g><path style="opacity:0.742" fill="#2f3136" d="M 197.5,40.5 C 197.5,43.5 197.5,46.5 197.5,49.5C 196.292,48.7659 194.959,48.4326 193.5,48.5C 193.657,47.1266 193.49,45.7932 193,44.5C 192.617,45.056 192.117,45.3893 191.5,45.5C 191.5,44.5 191.5,43.5 191.5,42.5C 193.886,42.7413 195.886,42.0746 197.5,40.5 Z"/></g>
<g><path style="opacity:1" fill="#235ebd" d="M 216.5,43.5 C 215.403,46.6865 214.07,49.6865 212.5,52.5C 209.659,52.8468 207.659,52.5135 206.5,51.5C 208.5,51.5 210.5,51.5 212.5,51.5C 212.5,50.5 212.5,49.5 212.5,48.5C 210.801,48.4729 209.467,47.8062 208.5,46.5C 208.557,45.391 208.89,44.391 209.5,43.5C 211.472,41.6815 213.805,40.6815 216.5,40.5C 216.5,41.5 216.5,42.5 216.5,43.5 Z"/></g>
<g><path style="opacity:1" fill="#11afe2" d="M 35.5,37.5 C 36.8333,37.5 38.1667,37.5 39.5,37.5C 41.6977,37.4088 42.0311,38.0755 40.5,39.5C 41.0482,41.6264 41.7148,43.6264 42.5,45.5C 44.1788,45.2852 45.1788,45.9519 45.5,47.5C 43.8333,47.5 42.1667,47.5 40.5,47.5C 40.6602,49.1992 40.4935,50.8659 40,52.5C 39.501,48.1794 39.3343,43.8461 39.5,39.5C 37.8333,39.5 36.1667,39.5 34.5,39.5C 34.1667,39.5 33.8333,39.5 33.5,39.5C 33.5,38.1667 34.1667,37.5 35.5,37.5 Z"/></g>
<g><path style="opacity:0.766" fill="#292a30" d="M 78.5,36.5 C 78.8333,36.5 79.1667,36.5 79.5,36.5C 79.5,41.8333 79.5,47.1667 79.5,52.5C 77.5,52.5 75.5,52.5 73.5,52.5C 73.5,49.5 73.5,46.5 73.5,43.5C 74.9305,43.4208 76.2638,43.7542 77.5,44.5C 78.4656,42.604 78.7989,40.604 78.5,38.5C 78.5,37.8333 78.5,37.1667 78.5,36.5 Z"/></g>
<g><path style="opacity:1" fill="#2e3036" d="M 98.5,45.5 C 97.5244,46.8149 96.5244,48.1482 95.5,49.5C 94.4728,50.7914 93.4728,50.7914 92.5,49.5C 91.8333,49.5 91.1667,49.5 90.5,49.5C 90.573,47.9731 89.9063,46.9731 88.5,46.5C 88.4614,45.2438 88.9614,44.2438 90,43.5C 90.7412,44.6405 91.5745,44.6405 92.5,43.5C 93.7945,46.4869 95.7945,47.1536 98.5,45.5 Z"/></g>
<g><path style="opacity:0.247" fill="#43193e" d="M 220.5,44.5 C 221.833,44.5 223.167,44.5 224.5,44.5C 224.5,45.5 224.5,46.5 224.5,47.5C 222.027,47.9118 220.694,46.9118 220.5,44.5 Z"/></g>
<g><path style="opacity:0.043" fill="#7b7b7d" d="M 88.5,46.5 C 89.9063,46.9731 90.573,47.9731 90.5,49.5C 89.0937,49.0269 88.427,48.0269 88.5,46.5 Z"/></g>
<g><path style="opacity:1" fill="#27292e" d="M 129.5,42.5 C 129.833,42.5 130.167,42.5 130.5,42.5C 130.047,43.4584 129.381,44.2917 128.5,45C 129.448,45.4828 130.448,45.6495 131.5,45.5C 131.557,46.609 131.89,47.609 132.5,48.5C 133.209,49.404 134.209,49.7373 135.5,49.5C 133.5,50.5 131.5,51.5 129.5,52.5C 129.167,52.5 128.833,52.5 128.5,52.5C 127.5,52.1667 126.833,51.5 126.5,50.5C 125.828,47.0581 126.828,44.3914 129.5,42.5 Z"/></g>
<g><path style="opacity:1" fill="#222428" d="M 155.5,43.5 C 155.5,44.5 155.5,45.5 155.5,46.5C 155.62,47.5862 156.287,48.2528 157.5,48.5C 158.849,48.1543 160.183,47.821 161.5,47.5C 161.784,49.4147 161.451,51.0813 160.5,52.5C 156.247,53.1925 152.581,52.1925 149.5,49.5C 149.5,47.8333 149.5,46.1667 149.5,44.5C 151.565,44.4828 153.565,44.1495 155.5,43.5 Z"/></g>
<g><path style="opacity:0.612" fill="#838588" d="M 155.5,46.5 C 157.575,46.7765 159.575,47.1099 161.5,47.5C 160.183,47.821 158.849,48.1543 157.5,48.5C 156.287,48.2528 155.62,47.5862 155.5,46.5 Z"/></g>
<g><path style="opacity:0.985" fill="#212327" d="M 173.5,41.5 C 173.5,45.1667 173.5,48.8333 173.5,52.5C 171.5,52.5 169.5,52.5 167.5,52.5C 167.5,49.8333 167.5,47.1667 167.5,44.5C 168.302,45.9516 168.802,47.6183 169,49.5C 171.633,47.3587 173.133,44.6921 173.5,41.5 Z"/></g>
<g><path style="opacity:1" fill="#235ccb" d="M 232.5,43.5 C 233.604,45.3885 234.937,47.0552 236.5,48.5C 236.5,49.8333 236.5,51.1667 236.5,52.5C 234.5,52.5 232.5,52.5 230.5,52.5C 229.326,51.4863 228.66,50.153 228.5,48.5C 228.34,46.8008 228.506,45.1341 229,43.5C 229.986,42.8288 231.153,42.8288 232.5,43.5 Z"/></g>
<g><path style="opacity:1" fill="#23262b" d="M 197.5,49.5 C 197.5,50.5 197.5,51.5 197.5,52.5C 195.5,52.5 193.5,52.5 191.5,52.5C 191.5,50.1667 191.5,47.8333 191.5,45.5C 192.117,45.3893 192.617,45.056 193,44.5C 193.49,45.7932 193.657,47.1266 193.5,48.5C 194.959,48.4326 196.292,48.7659 197.5,49.5 Z"/></g>
<g><path style="opacity:0.097" fill="#517a96" d="M 241.5,22.5 C 241.5,25.1667 241.5,27.8333 241.5,30.5C 241.5,32.5 241.5,34.5 241.5,36.5C 241.179,42.0262 241.512,47.3595 242.5,52.5C 244.5,52.5 246.5,52.5 248.5,52.5C 248.833,52.5 249.167,52.5 249.5,52.5C 246.713,53.4767 243.713,53.81 240.5,53.5C 240.172,42.9865 240.506,32.6532 241.5,22.5 Z"/></g>
<g><path style="opacity:1" fill="#1c5cc7" d="M 248.5,43.5 C 248.5,46.5 248.5,49.5 248.5,52.5C 246.5,52.5 244.5,52.5 242.5,52.5C 242.5,50.1667 242.5,47.8333 242.5,45.5C 244.592,45.4386 246.092,44.4386 247,42.5C 247.383,43.056 247.883,43.3893 248.5,43.5 Z"/></g>
<g><path style="opacity:1" fill="#23252a" d="M 99.5,38.5 C 99.8205,43.6946 99.4872,48.6946 98.5,53.5C 97.0484,52.6981 95.3817,52.1981 93.5,52C 92.7476,51.3292 92.4142,50.4959 92.5,49.5C 93.4728,50.7914 94.4728,50.7914 95.5,49.5C 96.5244,48.1482 97.5244,46.8149 98.5,45.5C 98.5,44.8333 98.5,44.1667 98.5,43.5C 98.2155,41.5853 98.5489,39.9187 99.5,38.5 Z"/></g>
<g><path style="opacity:0.914" fill="#169ecb" d="M 27.5,43.5 C 28.7899,44.0577 29.6232,45.0577 30,46.5C 29.9467,49.6752 30.78,52.3419 32.5,54.5C 31.4489,55.2223 30.7822,56.2223 30.5,57.5C 28.665,56.8777 27.4983,55.5444 27,53.5C 26.6667,51.1667 26.3333,48.8333 26,46.5C 25.3292,45.7476 24.4959,45.4142 23.5,45.5C 21.2603,44.7356 18.9269,43.9023 16.5,43C 20.1087,43.2384 23.7754,43.4051 27.5,43.5 Z"/></g>
<g><path style="opacity:1" fill="#154cc0" d="M 208.5,46.5 C 209.467,47.8062 210.801,48.4729 212.5,48.5C 212.5,49.5 212.5,50.5 212.5,51.5C 210.5,51.5 208.5,51.5 206.5,51.5C 206.893,49.7162 207.559,48.0495 208.5,46.5 Z"/></g>
<g><path style="opacity:0.392" fill="#232529" d="M 183.5,44.5 C 183.81,47.7131 183.477,50.7131 182.5,53.5C 181.432,52.5655 180.099,52.2322 178.5,52.5C 178.5,50.1667 178.5,47.8333 178.5,45.5C 180.216,45.3713 181.883,45.038 183.5,44.5 Z"/></g>
<g><path style="opacity:0.545" fill="#5a5b5e" d="M 71.5,37.5 C 72.1667,37.5 72.8333,37.5 73.5,37.5C 73.5,39.5 73.5,41.5 73.5,43.5C 73.5,46.5 73.5,49.5 73.5,52.5C 75.5,52.5 77.5,52.5 79.5,52.5C 78.828,53.2674 77.9947,53.9341 77,54.5C 75.4667,54.0563 73.9667,53.723 72.5,53.5C 71.5052,48.2079 71.1718,42.8746 71.5,37.5 Z"/></g>
<g><path style="opacity:0.361" fill="#6c6d70" d="M 90.5,49.5 C 91.1667,49.5 91.8333,49.5 92.5,49.5C 92.4142,50.4959 92.7476,51.3292 93.5,52C 95.3817,52.1981 97.0484,52.6981 98.5,53.5C 94.517,54.4285 91.8503,53.0951 90.5,49.5 Z"/></g>
<g><path style="opacity:0.973" fill="#5e5f61" d="M 108.5,52.5 C 111.5,52.5 114.5,52.5 117.5,52.5C 116.223,53.8976 114.557,54.5643 112.5,54.5C 110.645,54.6598 109.312,53.9931 108.5,52.5 Z"/></g>
<g><path style="opacity:0.533" fill="#5780ad" d="M 209.5,41.5 C 209.5,42.1667 209.5,42.8333 209.5,43.5C 208.89,44.391 208.557,45.391 208.5,46.5C 207.559,48.0495 206.893,49.7162 206.5,51.5C 207.659,52.5135 209.659,52.8468 212.5,52.5C 209.645,53.8032 206.645,53.8032 203.5,52.5C 205.274,48.6112 207.274,44.9446 209.5,41.5 Z"/></g>
<g><path style="opacity:0.518" fill="#4c7bad" d="M 236.5,48.5 C 237.931,49.7804 238.598,51.4471 238.5,53.5C 235.615,53.8064 232.948,53.4731 230.5,52.5C 232.5,52.5 234.5,52.5 236.5,52.5C 236.5,51.1667 236.5,49.8333 236.5,48.5 Z"/></g>
<g><path style="opacity:0.267" fill="#6b6d70" d="M 128.5,52.5 C 128.833,52.5 129.167,52.5 129.5,52.5C 131.833,52.5 134.167,52.5 136.5,52.5C 135.688,53.9931 134.355,54.6598 132.5,54.5C 130.645,54.6598 129.312,53.9931 128.5,52.5 Z"/></g>
<g><path style="opacity:0.008" fill="#66666a" d="M 144.5,52.5 C 142.344,54.9599 140.011,54.9599 137.5,52.5C 139.588,52.1348 141.921,52.1348 144.5,52.5 Z"/></g>
<g><path style="opacity:0.251" fill="#717173" d="M 149.5,49.5 C 152.581,52.1925 156.247,53.1925 160.5,52.5C 158.545,54.3258 156.212,54.8258 153.5,54C 151.249,53.2525 149.916,51.7525 149.5,49.5 Z"/></g>
<g><path style="opacity:0.929" fill="#1a93bc" d="M 34.5,39.5 C 36.1667,39.5 37.8333,39.5 39.5,39.5C 39.3343,43.8461 39.501,48.1794 40,52.5C 40.4935,50.8659 40.6602,49.1992 40.5,47.5C 42.1667,47.5 43.8333,47.5 45.5,47.5C 46.0102,50.3878 45.3435,52.7211 43.5,54.5C 44.3414,52.6208 44.6747,50.6208 44.5,48.5C 43.5,48.5 42.5,48.5 41.5,48.5C 41.3253,50.6208 41.6586,52.6208 42.5,54.5C 43.5511,55.2223 44.2178,56.2223 44.5,57.5C 41.7615,58.0352 39.9282,57.0352 39,54.5C 38.5008,49.8452 38.3342,45.1785 38.5,40.5C 37.209,40.2627 36.209,40.596 35.5,41.5C 33.8651,45.573 32.8651,49.9063 32.5,54.5C 31.9735,49.193 32.6402,44.193 34.5,39.5 Z M 43.5,54.5 C 43.1667,54.5 42.8333,54.5 42.5,54.5C 41.6586,52.6208 41.3253,50.6208 41.5,48.5C 42.5,48.5 43.5,48.5 44.5,48.5C 44.6747,50.6208 44.3414,52.6208 43.5,54.5 Z"/></g>
</svg>
