<?xml version="1.0" encoding="UTF-8"?>
<!DOCTYPE svg PUBLIC "-//W3C//DTD SVG 1.1//EN" "http://www.w3.org/Graphics/SVG/1.1/DTD/svg11.dtd">
<svg xmlns="http://www.w3.org/2000/svg" version="1.1" width="64px" height="64px" style="shape-rendering:geometricPrecision; text-rendering:geometricPrecision; image-rendering:optimizeQuality; fill-rule:evenodd; clip-rule:evenodd" xmlns:xlink="http://www.w3.org/1999/xlink">
<g><path style="opacity:0.982" fill="#fbfdfd" d="M 1.5,-0.5 C 21.5,-0.5 41.5,-0.5 61.5,-0.5C 61.8333,0.5 62.5,1.16667 63.5,1.5C 63.5,21.5 63.5,41.5 63.5,61.5C 62.5,61.8333 61.8333,62.5 61.5,63.5C 41.5,63.5 21.5,63.5 1.5,63.5C 1.16667,62.5 0.5,61.8333 -0.5,61.5C -0.5,41.5 -0.5,21.5 -0.5,1.5C 0.5,1.16667 1.16667,0.5 1.5,-0.5 Z"/></g>
<g><path style="opacity:1" fill="#32a9df" d="M 57.5,26.5 C 57.6621,28.5273 57.4955,30.5273 57,32.5C 56.7679,31.2625 56.2679,30.2625 55.5,29.5C 55.9838,26.2023 54.9838,23.5357 52.5,21.5C 49.5064,24.8276 46.5064,28.1609 43.5,31.5C 40.132,32.5976 39.632,31.5976 42,28.5C 45.3493,25.318 48.516,21.9846 51.5,18.5C 49.8333,16.1667 47.8333,14.1667 45.5,12.5C 44.3786,18.1446 41.3786,22.6446 36.5,26C 38.934,29.716 39.1007,33.5493 37,37.5C 33,40.1667 29,40.1667 25,37.5C 24.0419,35.8008 23.5419,33.9674 23.5,32C 24.2781,28.845 24.4448,25.6784 24,22.5C 21,19.5 18,16.5 15,13.5C 11.7379,16.092 9.23791,19.2587 7.5,23C 11.9847,24.4766 15.6514,27.1433 18.5,31C 19.8333,31.3333 21.1667,31.6667 22.5,32C 19.8004,33.0113 17.4671,34.5113 15.5,36.5C 12.4281,36.1826 9.42814,36.5159 6.5,37.5C 6.62358,38.1067 6.95691,38.44 7.5,38.5C 7.51056,40.0174 8.17723,41.1841 9.5,42C 19.5013,40.3367 24.0013,44.5034 23,54.5C 24.0113,55.3366 25.1779,55.67 26.5,55.5C 26.0585,50.3088 26.5585,45.3088 28,40.5C 29.6058,45.319 29.9391,50.319 29,55.5C 26.3333,58.1667 23.6667,58.1667 21,55.5C 22.0004,46.1695 17.8338,42.3361 8.5,44C 4.28255,39.3017 2.78255,33.8017 4,27.5C 6.86625,14.6905 14.6996,7.85715 27.5,7C 28.3333,7.83333 29.1667,8.66667 30,9.5C 31.131,26.5048 32.131,26.1714 33,8.5C 35.1529,6.55611 37.6529,6.05611 40.5,7C 49.9046,10.2381 55.5713,16.7381 57.5,26.5 Z"/></g>
<g><path style="opacity:1" fill="#f5f9fa" d="M 35.5,8.5 C 42.0293,8.27094 44.196,11.2709 42,17.5C 39.6094,20.5968 36.776,22.7635 33.5,24C 34.1903,18.8353 34.8569,13.6686 35.5,8.5 Z"/></g>
<g><path style="opacity:1" fill="#f9fcfc" d="M 55.5,29.5 C 51.9707,31.4228 47.9707,32.0894 43.5,31.5C 46.5064,28.1609 49.5064,24.8276 52.5,21.5C 54.9838,23.5357 55.9838,26.2023 55.5,29.5 Z"/></g>
<g><path style="opacity:1" fill="#f7fafb" d="M 22.5,8.5 C 24.1439,8.28649 25.6439,8.61983 27,9.5C 27.3333,14.1667 27.6667,18.8333 28,23.5C 30.5457,25.6412 33.2123,27.6412 36,29.5C 36.8333,35.3333 34.3333,37.8333 28.5,37C 24.9029,34.0091 24.5695,30.6757 27.5,27C 26.9221,25.1886 26.4221,23.3553 26,21.5C 22.9838,18.6511 20.1504,15.6511 17.5,12.5C 19.0147,10.9178 20.6814,9.5845 22.5,8.5 Z"/></g>
<g><path style="opacity:1" fill="#fafcfc" d="M 7.5,25.5 C 11.6019,27.2662 14.2686,30.2662 15.5,34.5C 12.5,34.5 9.5,34.5 6.5,34.5C 6.26414,31.3915 6.59748,28.3915 7.5,25.5 Z"/></g>
<g><path style="opacity:1" fill="#55b9e4" d="M 57.5,26.5 C 58.8333,29.8333 58.8333,33.1667 57.5,36.5C 57.631,35.7611 57.4643,35.0944 57,34.5C 56.7216,35.4158 56.2216,36.0825 55.5,36.5C 51.9707,34.5772 47.9707,33.9106 43.5,34.5C 43.5,33.5 43.5,32.5 43.5,31.5C 47.9707,32.0894 51.9707,31.4228 55.5,29.5C 56.2679,30.2625 56.7679,31.2625 57,32.5C 57.4955,30.5273 57.6621,28.5273 57.5,26.5 Z"/></g>
<g><path style="opacity:1" fill="#93cbe1" d="M 15.5,36.5 C 12.8333,37.1667 10.1667,37.8333 7.5,38.5C 6.95691,38.44 6.62358,38.1067 6.5,37.5C 9.42814,36.5159 12.4281,36.1826 15.5,36.5 Z"/></g>
<g><path style="opacity:1" fill="#33aae0" d="M 57.5,36.5 C 56.268,43.7463 51.9347,46.5796 44.5,45C 43.6667,45.8333 42.8333,46.6667 42,47.5C 41.6667,50.1667 41.3333,52.8333 41,55.5C 37.8442,58.3988 35.1775,58.0655 33,54.5C 32.3333,50.1667 32.3333,45.8333 33,41.5C 33.414,41.0426 33.914,40.7093 34.5,40.5C 35.4519,42.0453 35.7852,43.712 35.5,45.5C 40.8401,43.2856 46.5068,42.1189 52.5,42C 53.9711,40.4167 54.9711,38.5834 55.5,36.5C 56.2216,36.0825 56.7216,35.4158 57,34.5C 57.4643,35.0944 57.631,35.7611 57.5,36.5 Z"/></g>
<g><path style="opacity:1" fill="#f3f8f9" d="M 35.5,48.5 C 36.8333,48.5 38.1667,48.5 39.5,48.5C 39.6621,50.5273 39.4955,52.5273 39,54.5C 38,55.8333 37,55.8333 36,54.5C 35.5045,52.5273 35.3379,50.5273 35.5,48.5 Z"/></g>
</svg>
